<svg width="310" height="82" viewBox="0 0 310 82" fill="none" xmlns="http://www.w3.org/2000/svg">
<path d="M115.532 50.2607V46.873H103.456V64.2979H115.532V60.7636H108.35V56.9025H114.325V53.5216H108.35V50.2607H115.532Z" fill="white"/>
<path d="M136.845 60.8636H129.296V46.873H124.341V64.2979H136.845V60.8636Z" fill="white"/>
<path d="M176.723 53.5149C173.382 52.7613 172.215 52.6746 172.215 51.3476C172.215 50.1139 173.868 49.7272 174.822 49.7272C176.369 49.7272 178.183 50.0873 180.03 51.0409L181.377 47.8333C179.483 46.793 177.043 46.3662 174.695 46.3662C170.087 46.3662 166.993 48.2334 166.866 51.8811C166.733 55.202 169.434 56.449 171.921 56.9625C174.315 57.456 176.743 57.8828 176.796 59.3032C176.843 60.6169 175.662 61.177 173.435 61.177C171.374 61.177 169.454 60.5168 167.493 59.6966L166.353 63.1776C168.6 64.1378 170.888 64.6647 173.248 64.6647C176.523 64.6647 178.91 64.1579 180.67 62.5041C181.891 61.3704 182.291 60.0034 182.291 58.6963C182.284 55.9356 180.57 54.3818 176.723 53.5149Z" fill="white"/>
<path d="M96.4334 50.314V46.873H81.2358V50.314H86.3706V64.2979H91.292V50.314H96.4334Z" fill="white"/>
<path d="M153.736 46.873V57.9428C153.736 58.8097 153.736 59.0498 153.683 59.3899C153.53 60.4435 152.503 61.057 150.869 61.077C149.662 61.057 148.775 60.7036 148.361 60.0701C148.155 59.7433 148.055 59.1631 148.055 58.2296V46.873H142.92V58.8831C142.92 60.5502 143.14 61.2971 143.894 62.244C145.134 63.7978 147.548 64.6113 150.882 64.6113C150.915 64.6113 150.955 64.6113 150.989 64.6113C151.009 64.6113 151.036 64.6113 151.062 64.6113C155.517 64.6113 157.817 62.8708 158.484 61.2437C158.818 60.4568 158.844 60.0834 158.844 58.4896V46.873H153.736Z" fill="white"/>
<path d="M83.5564 42.1051L54.7617 47.84V49.8472L54.8551 49.8205C73.8804 45.1993 83.5564 42.4185 83.6365 42.3985C83.7432 42.3718 83.7832 42.2851 83.7698 42.2184C83.7498 42.1384 83.6698 42.0784 83.5564 42.1051Z" fill="white"/>
<path d="M59.3899 43.7055C59.8367 43.4188 59.9634 43.5988 59.83 43.9189C59.6166 44.4324 58.643 47.5533 51.3943 53.5016C49.5004 55.0487 48.1601 55.9223 45.4326 57.5361C49.8939 51.2877 56.4024 45.6461 59.3899 43.7055ZM60.1434 41.5516C58.743 41.6316 56.149 43.7055 54.7286 44.9392C49.0603 49.8406 44.8525 54.3485 41.7849 59.0632C35.3965 62.4841 27.2609 65.9984 19.172 68.7459L18.9786 68.8126L17.4248 73.0004L18.3117 72.6536C23.4532 70.6931 32.0356 67.0121 39.8177 62.9242C39.3776 64.0912 39.1576 65.1649 39.1576 66.1451C39.1576 66.8787 39.2776 67.5522 39.5243 68.1724C40.0111 69.3994 40.9781 70.333 42.3118 70.8665C44.3057 71.66 47.0198 71.68 50.1206 70.7398C58.0362 68.3391 67.4321 60.9704 69.4794 59.5033L69.5527 59.4499C69.6327 59.3899 69.6394 59.3032 69.6061 59.2432C69.5594 59.1765 69.466 59.1565 69.3927 59.2032L69.2926 59.2632C67.0987 60.5769 56.4357 66.9054 49.5004 68.7659C45.9728 69.7128 43.2787 69.1927 42.2651 67.7723C41.9117 67.2855 41.7449 66.672 41.7449 65.9584C41.7449 64.5647 42.3985 62.7842 43.6721 60.8103C44.8391 60.1435 45.9261 59.4966 46.9064 58.8831C53.6683 55.0821 61.4638 47.6933 61.7905 43.1854C61.7905 43.1521 61.7905 43.1187 61.7905 43.0854C61.7905 42.6986 61.6238 42.2985 61.3237 41.9984C61.0103 41.6916 60.5902 41.5249 60.1434 41.5516Z" fill="white"/>
<path d="M54.6617 47.86L24.3665 54.3685L23.1929 57.516L54.755 49.8472L54.8084 49.8339V47.8267L54.6617 47.86Z" fill="white"/>
<path d="M185.118 46.873C186.105 46.873 186.932 47.6533 186.932 48.6735C186.932 49.7138 186.105 50.4941 185.118 50.4941C184.125 50.4941 183.291 49.7138 183.291 48.6735C183.291 47.6533 184.125 46.873 185.118 46.873ZM185.118 50.234C185.958 50.234 186.605 49.5671 186.605 48.6802C186.605 47.8133 185.958 47.1465 185.118 47.1465C184.271 47.1465 183.624 47.8133 183.624 48.6802C183.624 49.5605 184.271 50.234 185.118 50.234ZM184.411 47.6266H185.232C185.732 47.6266 185.972 47.8266 185.972 48.2334C185.972 48.6135 185.732 48.7736 185.412 48.8069L186.018 49.7405H185.665L185.092 48.8336H184.745V49.7405H184.418V47.6266H184.411ZM184.738 48.5669H185.085C185.372 48.5669 185.645 48.5535 185.645 48.2201C185.645 47.94 185.405 47.8933 185.178 47.8933H184.745V48.5669H184.738Z" fill="white"/>
<path d="M92.8059 21.0992C93.4194 21.4727 93.8929 21.9995 94.2263 22.693C94.5597 23.3799 94.7264 24.1867 94.7264 25.1137C94.7264 26.0406 94.5597 26.8475 94.2263 27.5344C93.8929 28.2212 93.4194 28.7547 92.8059 29.1281C92.1924 29.5016 91.4789 29.6883 90.6653 29.6883C90.0318 29.6883 89.4716 29.5616 88.9782 29.3148C88.4847 29.0681 88.0712 28.708 87.7312 28.2345V32.8025H86.3774V20.7458H87.6645V22.0995C87.9912 21.5927 88.4113 21.2059 88.9248 20.9392C89.4383 20.6724 90.0185 20.5391 90.6586 20.5391C91.4789 20.5457 92.1857 20.7258 92.8059 21.0992ZM91.9723 28.0478C92.3925 27.7744 92.7192 27.3743 92.9526 26.8608C93.186 26.3474 93.2994 25.7405 93.2994 25.0403C93.2994 24.3535 93.186 23.76 92.9526 23.2598C92.7192 22.7664 92.3925 22.3862 91.9723 22.1328C91.5522 21.8794 91.0521 21.7527 90.4919 21.7527C89.9251 21.7527 89.4316 21.8861 89.0115 22.1528C88.5914 22.4196 88.258 22.7997 88.0312 23.3065C87.7978 23.8066 87.6845 24.4068 87.6845 25.107C87.6845 25.8072 87.7978 26.4074 88.0312 26.9075C88.2646 27.4076 88.5914 27.7944 89.0115 28.0612C89.4316 28.3279 89.9251 28.4613 90.4919 28.4613C91.0587 28.4679 91.5522 28.3279 91.9723 28.0478Z" fill="white"/>
<path d="M97.9608 29.1281C97.3206 28.7547 96.8138 28.2212 96.4537 27.5277C96.0936 26.8342 95.9136 26.0273 95.9136 25.1137C95.9136 24.2001 96.0936 23.3932 96.4537 22.6997C96.8138 22.0061 97.314 21.4727 97.9608 21.0992C98.601 20.7258 99.3345 20.5391 100.141 20.5391C100.955 20.5391 101.682 20.7258 102.322 21.0992C102.962 21.4727 103.469 22.0061 103.829 22.6997C104.189 23.3932 104.369 24.2001 104.369 25.1137C104.369 26.0273 104.189 26.8342 103.829 27.5277C103.469 28.2212 102.969 28.7547 102.322 29.1281C101.682 29.5016 100.948 29.6883 100.141 29.6883C99.3279 29.6816 98.601 29.4949 97.9608 29.1281ZM101.622 28.0678C102.042 27.8011 102.369 27.421 102.602 26.9142C102.836 26.414 102.949 25.8139 102.949 25.1137C102.949 24.4135 102.836 23.8133 102.602 23.3132C102.369 22.813 102.042 22.4263 101.622 22.1595C101.202 21.8928 100.702 21.7594 100.141 21.7594C99.5746 21.7594 99.0811 21.8928 98.661 22.1595C98.2409 22.4263 97.9075 22.8064 97.6807 23.3132C97.4473 23.8133 97.334 24.4135 97.334 25.1137C97.334 25.8139 97.4473 26.414 97.6807 26.9142C97.9141 27.4143 98.2409 27.8011 98.661 28.0678C99.0811 28.3346 99.5746 28.4679 100.141 28.4679C100.708 28.4679 101.202 28.3346 101.622 28.0678Z" fill="white"/>
<path d="M117.593 20.7456L114.679 29.4814H113.258L111.971 25.4336C111.645 24.3866 111.351 23.3997 111.091 22.4728C110.764 23.5997 110.464 24.5867 110.191 25.4336L108.924 29.4814H107.504L104.589 20.7456H106.043L107.277 24.6867C107.537 25.5003 107.85 26.5606 108.224 27.8676C108.53 26.7606 108.837 25.7003 109.157 24.6867L110.378 20.7456H111.798L113.018 24.6867C113.445 26.0871 113.765 27.1341 113.965 27.8343C114.159 27.1341 114.465 26.0871 114.899 24.6867L116.133 20.7456H117.593Z" fill="white"/>
<path d="M125.855 25.5871H119.22C119.286 26.5474 119.553 27.2609 120.027 27.7344C120.493 28.2079 121.127 28.4479 121.914 28.4479C122.514 28.4479 123.007 28.3012 123.401 28.0145C123.794 27.7277 124.074 27.3276 124.228 26.8208H125.635C125.408 27.6811 124.975 28.3679 124.341 28.8947C123.701 29.4215 122.881 29.6816 121.88 29.6816C121.087 29.6816 120.387 29.4949 119.773 29.1215C119.16 28.748 118.68 28.2212 118.333 27.5277C117.986 26.8408 117.819 26.0339 117.819 25.107C117.819 24.2068 117.986 23.4065 118.319 22.713C118.653 22.0195 119.126 21.486 119.733 21.1059C120.34 20.7258 121.047 20.5391 121.847 20.5391C122.694 20.5391 123.421 20.7391 124.021 21.1459C124.628 21.5527 125.081 22.0995 125.395 22.7997C125.708 23.4932 125.862 24.2668 125.862 25.107V25.5871H125.855ZM120.107 22.4396C119.647 22.8797 119.366 23.5199 119.253 24.3668H124.401C124.355 23.8733 124.228 23.4265 124.021 23.0398C123.814 22.653 123.528 22.3462 123.161 22.1195C122.794 21.8928 122.354 21.7794 121.847 21.7794C121.147 21.7794 120.567 21.9995 120.107 22.4396Z" fill="white"/>
<path d="M132.017 20.6255V21.9258H131.677C130.783 21.9258 130.083 22.1459 129.576 22.586C129.07 23.0261 128.816 23.6663 128.816 24.4999V29.4746H127.462V20.7388H128.749V22.2793C129.023 21.7858 129.39 21.379 129.856 21.0723C130.323 20.7588 130.89 20.6055 131.557 20.6055C131.744 20.6121 131.897 20.6188 132.017 20.6255Z" fill="white"/>
<path d="M140.399 25.5871H133.764C133.831 26.5474 134.098 27.2609 134.571 27.7344C135.038 28.2079 135.671 28.4479 136.458 28.4479C137.058 28.4479 137.552 28.3012 137.945 28.0145C138.339 27.7277 138.619 27.3276 138.772 26.8208H140.179C139.953 27.6811 139.519 28.3679 138.886 28.8947C138.245 29.4215 137.425 29.6816 136.425 29.6816C135.631 29.6816 134.931 29.4949 134.318 29.1215C133.704 28.748 133.224 28.2212 132.877 27.5277C132.53 26.8408 132.364 26.0339 132.364 25.107C132.364 24.2068 132.53 23.4065 132.864 22.713C133.197 22.0195 133.671 21.486 134.278 21.1059C134.884 20.7258 135.591 20.5391 136.392 20.5391C137.238 20.5391 137.965 20.7391 138.565 21.1459C139.172 21.5527 139.626 22.0995 139.939 22.7997C140.253 23.4932 140.406 24.2668 140.406 25.107V25.5871H140.399ZM134.651 22.4396C134.191 22.8797 133.911 23.5199 133.797 24.3668H138.946C138.899 23.8733 138.772 23.4265 138.565 23.0398C138.359 22.653 138.072 22.3462 137.705 22.1195C137.338 21.8928 136.898 21.7794 136.392 21.7794C135.685 21.7794 135.105 21.9995 134.651 22.4396Z" fill="white"/>
<path d="M149.929 17.4246V29.4747H148.642V28.121C148.315 28.6278 147.895 29.0145 147.381 29.2813C146.868 29.548 146.288 29.6814 145.648 29.6814C144.834 29.6814 144.12 29.4947 143.507 29.1212C142.893 28.7478 142.42 28.221 142.087 27.5275C141.753 26.8406 141.586 26.0337 141.586 25.1068C141.586 24.1799 141.753 23.373 142.087 22.6861C142.42 21.9992 142.893 21.4658 143.507 21.0923C144.12 20.7189 144.834 20.5322 145.648 20.5322C146.281 20.5322 146.841 20.6589 147.335 20.9056C147.828 21.1523 148.242 21.5124 148.582 21.9859V17.418H149.929V17.4246ZM147.295 28.0676C147.715 27.8009 148.042 27.4208 148.275 26.914C148.508 26.4138 148.622 25.8136 148.622 25.1135C148.622 24.4133 148.508 23.8131 148.275 23.3129C148.042 22.8128 147.715 22.426 147.295 22.1593C146.875 21.8926 146.374 21.7592 145.814 21.7592C145.247 21.7592 144.754 21.8992 144.334 22.1726C143.914 22.4527 143.58 22.8462 143.354 23.3596C143.12 23.8731 143.007 24.4799 143.007 25.1801C143.007 25.867 143.12 26.4605 143.354 26.9606C143.587 27.4608 143.914 27.8342 144.334 28.0876C144.754 28.341 145.247 28.4677 145.814 28.4677C146.381 28.4677 146.875 28.3344 147.295 28.0676Z" fill="white"/>
<path d="M161.599 21.0992C162.212 21.4726 162.686 21.9994 163.019 22.6929C163.352 23.3865 163.519 24.1867 163.519 25.1136C163.519 26.0405 163.352 26.8474 163.019 27.5343C162.686 28.2212 162.212 28.7546 161.599 29.1281C160.985 29.5015 160.272 29.6882 159.458 29.6882C158.818 29.6882 158.238 29.5549 157.724 29.2881C157.211 29.0214 156.791 28.6346 156.464 28.1278V29.4815H155.177V17.4248H156.53V21.9927C156.871 21.5193 157.284 21.1592 157.777 20.9124C158.271 20.6657 158.831 20.539 159.465 20.539C160.272 20.5457 160.985 20.7257 161.599 21.0992ZM160.772 28.0478C161.192 27.7744 161.519 27.3743 161.752 26.8608C161.985 26.3473 162.099 25.7405 162.099 25.0403C162.099 24.3534 161.985 23.7599 161.752 23.2598C161.519 22.7663 161.192 22.3862 160.772 22.1328C160.352 21.8794 159.851 21.7527 159.291 21.7527C158.724 21.7527 158.231 21.8861 157.811 22.1528C157.391 22.4195 157.057 22.7996 156.831 23.3064C156.597 23.8066 156.484 24.4068 156.484 25.107C156.484 25.8071 156.597 26.4073 156.831 26.9075C157.064 27.4076 157.391 27.7944 157.811 28.0611C158.231 28.3279 158.731 28.4612 159.291 28.4612C159.851 28.4679 160.345 28.3279 160.772 28.0478Z" fill="white"/>
<path d="M171.628 20.7454L167.94 30.8483C167.76 31.3551 167.534 31.7552 167.274 32.0419C167.007 32.3287 166.7 32.5354 166.353 32.6621C166.007 32.7888 165.586 32.8488 165.1 32.8488C164.853 32.8488 164.579 32.8288 164.286 32.7955V31.6618H165.08C165.5 31.6618 165.833 31.5685 166.087 31.3884C166.34 31.2084 166.533 30.935 166.673 30.5749L166.98 29.7613L163.699 20.7388H165.186L166.42 24.3798C166.713 25.2267 167.134 26.487 167.674 28.1542C168.034 27.0005 168.454 25.7402 168.927 24.3598L170.161 20.7388H171.628V20.7454Z" fill="white"/>
<path d="M210.485 56.8692C210.985 57.6094 211.232 58.4429 211.232 59.3565C211.232 60.3501 211.012 61.2171 210.585 61.9639C210.152 62.7041 209.498 63.2843 208.625 63.6911C207.751 64.0979 206.678 64.3046 205.404 64.3046H197.548V46.873H205.064C206.284 46.873 207.304 47.0798 208.125 47.4866C208.938 47.8933 209.545 48.4402 209.938 49.1137C210.332 49.7939 210.525 50.5541 210.525 51.401C210.525 52.2479 210.325 52.9948 209.925 53.6283C209.525 54.2618 208.958 54.7886 208.225 55.1954C209.238 55.5688 209.992 56.129 210.485 56.8692ZM200.176 49.127V54.3418H204.897C205.911 54.3418 206.671 54.1084 207.184 53.6349C207.698 53.1615 207.958 52.4946 207.958 51.6277C207.958 50.8608 207.698 50.254 207.178 49.8072C206.658 49.3604 205.897 49.1337 204.904 49.1337H200.176V49.127ZM207.745 61.3238C208.305 60.8436 208.591 60.1701 208.591 59.3032C208.591 58.3563 208.305 57.6561 207.738 57.1959C207.164 56.7358 206.344 56.5091 205.264 56.5091H200.176V62.0373H205.264C206.357 62.0506 207.184 61.8106 207.745 61.3238Z" fill="white"/>
<path d="M223.816 51.6743V64.3045H221.468V62.4173C221.042 63.0708 220.488 63.5977 219.801 63.9978C219.114 64.3979 218.348 64.5979 217.501 64.5979C216.587 64.5979 215.8 64.4245 215.14 64.0845C214.48 63.7444 213.966 63.2376 213.613 62.564C213.259 61.8905 213.073 61.0903 213.073 60.1434V51.6743H215.52V59.7966C215.52 61.5571 216.407 62.4373 218.188 62.4373C218.728 62.4373 219.234 62.304 219.715 62.0439C220.195 61.7838 220.588 61.377 220.902 60.8235C221.215 60.2701 221.368 59.5899 221.368 58.7896V51.6743H223.816Z" fill="white"/>
<path d="M225.723 60.2837H228.17C228.237 60.8705 228.383 61.3373 228.61 61.6907C228.837 62.0442 229.164 62.2976 229.59 62.4509C230.017 62.6043 230.577 62.6843 231.278 62.6843C232.238 62.6843 232.945 62.531 233.391 62.2309C233.838 61.9308 234.065 61.4907 234.065 60.9238C234.065 60.5838 233.985 60.297 233.818 60.0703C233.658 59.8435 233.385 59.6502 232.998 59.4968C232.618 59.3434 232.071 59.1967 231.371 59.07L230.077 58.8233C228.723 58.5765 227.717 58.1497 227.056 57.5229C226.396 56.9027 226.063 56.0758 226.063 55.0489C226.063 54.302 226.256 53.6485 226.636 53.1017C227.023 52.5548 227.577 52.1281 228.303 51.828C229.03 51.5279 229.904 51.3745 230.937 51.3745C232.698 51.3745 234.018 51.7346 234.905 52.4615C235.792 53.1884 236.246 54.2353 236.279 55.609H233.905C233.858 54.7421 233.585 54.142 233.098 53.7952C232.611 53.4484 231.891 53.2817 230.944 53.2817C230.164 53.2817 229.557 53.4284 229.13 53.7218C228.704 54.0152 228.497 54.4287 228.497 54.9688C228.497 55.4757 228.69 55.8558 229.07 56.1158C229.45 56.3759 230.044 56.5893 230.844 56.7493L232.164 56.9694C233.211 57.1628 234.052 57.4229 234.685 57.743C235.319 58.063 235.792 58.4632 236.092 58.9566C236.392 59.4434 236.546 60.0436 236.546 60.7438C236.546 61.5574 236.332 62.2576 235.912 62.8377C235.485 63.4179 234.879 63.858 234.092 64.1581C233.298 64.4582 232.358 64.6115 231.264 64.6115C227.73 64.6182 225.883 63.1711 225.723 60.2837Z" fill="white"/>
<path d="M238.84 49.8136C238.613 49.6803 238.426 49.5069 238.286 49.2735C238.146 49.0468 238.08 48.7934 238.08 48.5133C238.08 48.2532 238.146 48.0065 238.273 47.7797C238.406 47.553 238.58 47.3663 238.813 47.2263C239.04 47.0862 239.293 47.0195 239.573 47.0195C239.833 47.0195 240.08 47.0862 240.307 47.2129C240.534 47.3463 240.72 47.5197 240.86 47.7531C241 47.9798 241.067 48.2332 241.067 48.5133C241.067 48.7734 241 49.0201 240.874 49.2468C240.74 49.4735 240.567 49.6603 240.334 49.8003C240.107 49.9403 239.853 50.007 239.573 50.007C239.313 50.007 239.067 49.9403 238.84 49.8136ZM238.353 51.6742H240.8V64.3044H238.353V51.6742Z" fill="white"/>
<path d="M253.111 52.5278C253.891 53.2947 254.284 54.395 254.284 55.8288V64.2978H251.837V56.1755C251.837 54.415 250.95 53.5348 249.17 53.5348C248.649 53.5348 248.143 53.6682 247.649 53.9416C247.162 54.2083 246.762 54.6151 246.449 55.1619C246.135 55.7087 245.982 56.3823 245.982 57.1825V64.3045H243.535V51.6743H245.882V53.5615C246.322 52.8946 246.882 52.3611 247.556 51.9677C248.229 51.5742 248.996 51.3809 249.843 51.3809C251.243 51.3809 252.324 51.761 253.111 52.5278Z" fill="white"/>
<path d="M268.455 58.7963H258.932C259.046 60.0499 259.419 60.9902 260.046 61.6104C260.673 62.2306 261.513 62.5373 262.553 62.5373C263.354 62.5373 264.02 62.3506 264.547 61.9772C265.074 61.6037 265.454 61.0902 265.688 60.4367H268.162C267.948 61.2703 267.588 61.9972 267.088 62.6173C266.581 63.2375 265.941 63.7243 265.167 64.0711C264.394 64.4245 263.507 64.5979 262.513 64.5979C261.32 64.5979 260.273 64.3311 259.359 63.791C258.446 63.2508 257.739 62.484 257.232 61.4903C256.725 60.4967 256.472 59.3297 256.472 57.9894C256.472 56.6823 256.718 55.5287 257.219 54.5284C257.719 53.5281 258.419 52.7479 259.326 52.2011C260.233 51.6543 261.28 51.3809 262.473 51.3809C263.714 51.3809 264.787 51.6676 265.694 52.2478C266.601 52.8279 267.288 53.6282 267.761 54.6484C268.235 55.6687 268.468 56.8157 268.468 58.0894V58.7963H268.455ZM260.106 54.3017C259.486 54.8818 259.106 55.7354 258.959 56.8557H265.934C265.854 56.1889 265.668 55.5954 265.381 55.0819C265.094 54.5684 264.701 54.1616 264.207 53.8682C263.707 53.5748 263.127 53.4281 262.46 53.4281C261.513 53.4348 260.726 53.7215 260.106 54.3017Z" fill="white"/>
<path d="M269.702 60.2837H272.149C272.216 60.8705 272.362 61.3373 272.589 61.6907C272.816 62.0442 273.143 62.2976 273.569 62.4509C273.996 62.6043 274.556 62.6843 275.257 62.6843C276.217 62.6843 276.924 62.531 277.37 62.2309C277.817 61.9308 278.044 61.4907 278.044 60.9238C278.044 60.5838 277.964 60.297 277.797 60.0703C277.637 59.8435 277.364 59.6502 276.977 59.4968C276.597 59.3434 276.05 59.1967 275.35 59.07L274.056 58.8233C272.702 58.5765 271.696 58.1497 271.035 57.5229C270.375 56.9027 270.042 56.0758 270.042 55.0489C270.042 54.302 270.235 53.6485 270.615 53.1017C271.002 52.5548 271.556 52.1281 272.282 51.828C273.009 51.5279 273.883 51.3745 274.916 51.3745C276.677 51.3745 277.997 51.7346 278.884 52.4615C279.771 53.1884 280.225 54.2353 280.258 55.609H277.884C277.837 54.7421 277.564 54.142 277.077 53.7952C276.59 53.4484 275.87 53.2817 274.923 53.2817C274.143 53.2817 273.536 53.4284 273.109 53.7218C272.682 54.0152 272.476 54.4287 272.476 54.9688C272.476 55.4757 272.669 55.8558 273.049 56.1158C273.429 56.3759 274.023 56.5893 274.823 56.7493L276.143 56.9694C277.19 57.1628 278.031 57.4229 278.664 57.743C279.298 58.063 279.771 58.4632 280.071 58.9566C280.371 59.4434 280.525 60.0436 280.525 60.7438C280.525 61.5574 280.311 62.2576 279.891 62.8377C279.464 63.4179 278.858 63.858 278.071 64.1581C277.277 64.4582 276.337 64.6115 275.243 64.6115C271.709 64.6182 269.862 63.1711 269.702 60.2837Z" fill="white"/>
<path d="M281.765 60.2837H284.212C284.279 60.8705 284.426 61.3373 284.653 61.6907C284.879 62.0442 285.206 62.2976 285.633 62.4509C286.06 62.6043 286.62 62.6843 287.32 62.6843C288.28 62.6843 288.987 62.531 289.434 62.2309C289.881 61.9308 290.107 61.4907 290.107 60.9238C290.107 60.5838 290.027 60.297 289.861 60.0703C289.701 59.8435 289.427 59.6502 289.041 59.4968C288.66 59.3434 288.114 59.1967 287.413 59.07L286.12 58.8233C284.766 58.5765 283.759 58.1497 283.099 57.5229C282.439 56.9027 282.105 56.0758 282.105 55.0489C282.105 54.302 282.299 53.6485 282.679 53.1017C283.065 52.5548 283.619 52.1281 284.346 51.828C285.073 51.5279 285.946 51.3745 286.98 51.3745C288.74 51.3745 290.061 51.7346 290.948 52.4615C291.835 53.1884 292.288 54.2353 292.321 55.609H289.947C289.901 54.7421 289.627 54.142 289.141 53.7952C288.654 53.4484 287.934 53.2817 286.987 53.2817C286.206 53.2817 285.6 53.4284 285.173 53.7218C284.746 54.0152 284.539 54.4287 284.539 54.9688C284.539 55.4757 284.733 55.8558 285.113 56.1158C285.493 56.3759 286.086 56.5893 286.887 56.7493L288.207 56.9694C289.254 57.1628 290.094 57.4229 290.728 57.743C291.361 58.063 291.835 58.4632 292.135 58.9566C292.435 59.4434 292.588 60.0436 292.588 60.7438C292.588 61.5574 292.375 62.2576 291.955 62.8377C291.528 63.4179 290.921 63.858 290.134 64.1581C289.341 64.4582 288.4 64.6115 287.307 64.6115C283.772 64.6182 281.932 63.1711 281.765 60.2837Z" fill="white"/>
</svg>
