<svg width="196" height="23" viewBox="0 0 196 23" fill="none" xmlns="http://www.w3.org/2000/svg">
<path d="M20 5V19C20 19.5304 19.7893 20.0391 19.4142 20.4142C19.0391 20.7893 18.5304 21 18 21H8C7.46957 21 6.96086 20.7893 6.58579 20.4142C6.21071 20.0391 6 19.5304 6 19V5M9 3C9 2.46957 9.21071 1.96086 9.58579 1.58579C9.96086 1.21071 10.4696 1 11 1H15C15.5304 1 16.0391 1.21071 16.4142 1.58579C16.7893 1.96086 17 2.46957 17 3" stroke="white" stroke-width="2" stroke-linecap="round" stroke-linejoin="round"/>
<path d="M34 5V19C34 19.5304 33.7893 20.0391 33.4142 20.4142C33.0391 20.7893 32.5304 21 32 21H22C21.4696 21 20.9609 20.7893 20.5858 20.4142C20.2107 20.0391 20 19.5304 20 19V5M23 3C23 2.46957 23.2107 1.96086 23.5858 1.58579C23.9609 1.21071 24.4696 1 25 1H29C29.5304 1 30.0391 1.21071 30.4142 1.58579C30.7893 1.96086 31 2.46957 31 3" stroke="white" stroke-width="2" stroke-linecap="round" stroke-linejoin="round"/>
<path d="M1 5H1.55556H6" stroke="white" stroke-width="2" stroke-linecap="round" stroke-linejoin="round"/>
<path d="M34 5H34.5556H39" stroke="white" stroke-width="2" stroke-linecap="round" stroke-linejoin="round"/>
<path d="M44 12H46H62" stroke="white" stroke-width="2" stroke-linecap="round" stroke-linejoin="round"/>
<path d="M58 21C58.5304 21 59.0391 20.7893 59.4142 20.4142C59.7893 20.0391 60 19.5304 60 19V5H57V3C57 2.46957 56.7893 1.96086 56.4142 1.58579C56.0391 1.21071 55.5304 1 55 1H51C50.4696 1 49.9609 1.21071 49.5858 1.58579C49.2107 1.96086 49 2.46957 49 3V5H46V19C46 19.5304 46.2107 20.0391 46.5858 20.4142C46.9609 20.7893 47.4696 21 48 21" stroke="white" stroke-width="2" stroke-linecap="round" stroke-linejoin="round"/>
<path d="M67 7H69H83" stroke="white" stroke-width="2" stroke-linecap="round" stroke-linejoin="round"/>
<path d="M83 7V19C83 19.5304 82.7893 20.0391 82.4142 20.4142C82.0391 20.7893 81.5304 21 81 21H71C70.4696 21 69.9609 20.7893 69.5858 20.4142C69.2107 20.0391 69 19.5304 69 19V14.5M72 7V3C72 2.46957 72.2107 1.96086 72.5858 1.58579C72.9609 1.21071 73.4696 1 74 1H80" stroke="white" stroke-width="2" stroke-linecap="round" stroke-linejoin="round"/>
<path d="M88 5H90H106" stroke="white" stroke-width="2" stroke-linecap="round" stroke-linejoin="round"/>
<path d="M100 5L99 19C99 19.5304 98.7893 20.0391 98.4142 20.4142C98.0391 20.7893 97.5304 21 97 21H97.4142C96.8838 21 96.3751 20.7893 96 20.4142C95.6249 20.0391 95.4142 19.5304 95.4142 19L94 5M94 5L93 3C93 2.46957 93.2107 1.96086 93.5858 1.58579C93.9609 1.21071 94.4696 1 95 1H99C99.5304 1 100.039 1.21071 100.414 1.58579C100.789 1.96086 101 2.46957 101 3L100 5" stroke="white" stroke-width="2" stroke-linecap="round" stroke-linejoin="round"/>
<path d="M111 9H113H129" stroke="white" stroke-width="2" stroke-linecap="round" stroke-linejoin="round"/>
<path d="M127 17.5V19C127 19.5304 126.789 20.0391 126.414 20.4142C126.039 20.7893 125.53 21 125 21H115C114.47 21 113.961 20.7893 113.586 20.4142C113.211 20.0391 113 19.5304 113 19V5H116V3C116 2.46957 116.211 1.96086 116.586 1.58579C116.961 1.21071 117.47 1 118 1H122C122.53 1 123.039 1.21071 123.414 1.58579C123.789 1.96086 124 2.46957 124 3V5H127.5V9" stroke="white" stroke-width="2" stroke-linecap="round" stroke-linejoin="round"/>
<path d="M148 5H150H152.5M161 5H166" stroke="white" stroke-width="2" stroke-linecap="round" stroke-linejoin="round"/>
<path d="M164 19C164 19.5304 163.789 20.0391 163.414 20.4142C163.039 20.7893 162.53 21 162 21H152C151.47 21 150.961 20.7893 150.586 20.4142C150.211 20.0391 150 19.5304 150 19V5M153 5V3C153 2.46957 153.211 1.96086 153.586 1.58579C153.961 1.21071 154.47 1 155 1H159C159.53 1 160.039 1.21071 160.414 1.58579C160.789 1.96086 161 2.46957 161 3V5" stroke="white" stroke-width="2" stroke-linecap="round" stroke-linejoin="round"/>
<path d="M170 5H172H188" stroke="white" stroke-width="2" stroke-linecap="round" stroke-linejoin="round"/>
<path d="M186 5V19C186 19.5304 185.789 20.0391 185.414 20.4142C185.039 20.7893 184.53 21 184 21H174C173.47 21 172.961 20.7893 172.586 20.4142C172.211 20.0391 172 19.5304 172 19V5M175 5V3C175 2.46957 175.211 1.96086 175.586 1.58579C175.961 1.21071 176.47 1 177 1H181C181.53 1 182.039 1.21071 182.414 1.58579C182.789 1.96086 183 2.46957 183 3V5" stroke="white" stroke-width="2" stroke-linecap="round" stroke-linejoin="round"/>
<path d="M193.106 22.6935L192.626 22.0687L191.667 22.592L190.61 21.8344L190.561 20.8425C190.48 20.7644 190.358 20.6395 190.268 20.5223C190.236 20.4833 190.154 20.3739 190.033 19.6945L190 19.507L190.691 19.015L190.512 17.8669L190.854 17.8357C191.081 17.8122 191.455 17.7654 191.577 17.7185C191.886 17.5936 192.325 17.5311 192.577 17.5233L193.764 17L194.846 17.9684V18.3277L196 19.0306L195.797 19.2961C195.78 19.3117 195.488 19.7101 195.203 20.0225L195.642 21.194L195.52 21.3346C195.154 21.7407 194.683 22.2483 194.537 22.3342C194.496 22.3655 194.366 22.4436 193.301 22.6544L193.106 22.6935ZM192.569 20.9363L193.382 21.9984C193.732 21.9281 194.089 21.8422 194.195 21.8032C194.293 21.7251 194.618 21.3814 194.919 21.0534L194.699 20.4677C194.431 20.6707 194.171 20.8426 194.155 20.8504L193.789 20.3349C193.976 20.2099 194.504 19.8429 194.724 19.6086C194.846 19.4758 194.976 19.3118 195.081 19.1868L194.211 18.6792C194.203 18.6792 194.187 18.687 194.179 18.687C193.943 18.7651 193.415 18.8822 193.39 18.89L193.154 18.9447L193.032 18.7494C192.87 18.4917 192.675 18.234 192.569 18.1481C192.366 18.1559 192.024 18.2106 191.813 18.2965C191.667 18.3511 191.439 18.3902 191.244 18.4214L191.358 19.1478L191.976 19.632L193.008 19.5227L193.073 20.1475L191.78 20.2802L191.065 19.7179L190.715 19.8585C190.748 20.0069 190.78 20.124 190.797 20.1787C190.894 20.2958 191.041 20.4364 191.089 20.4833L191.187 20.5692L191.236 21.5142L191.707 21.8501L192.228 21.5689L192.032 21.319L192.569 20.9363ZM193.236 17.9138C193.309 17.9997 193.382 18.1012 193.463 18.2262C193.642 18.1793 193.854 18.1246 193.967 18.0934C193.984 18.0856 194 18.0856 194.024 18.0778L193.642 17.7341L193.236 17.9138Z" fill="white"/>
</svg>
