<svg width="40" height="40" viewBox="0 0 24 24" fill="none" xmlns="http://www.w3.org/2000/svg">
<path d="M12.3542 0.00204503H12.298C11.9299 0.0224958 11.5515 0.181501 11.2703 0.492352L11.1374 4.81718L11.8123 4.84785L13.1314 0.22138C12.9422 0.0848707 12.6865 0.00613523 12.4156 0H12.3542V0.00204503ZM10.2785 2.7404C8.22317 2.79664 6.27523 3.22815 4.80278 4.05027C3.12172 4.99101 2.05419 6.37655 2 8.41651C3.95407 7.91036 5.60036 7.52179 7.18018 7.59337C8.8009 7.65984 10.3398 8.23246 11.9963 9.54642C13.3768 7.7672 15.0179 7.00541 16.8074 7.05654C18.5048 7.10255 19.5733 7.34285 21.5213 8.35005C21.1941 6.75489 20.7544 5.89084 19.0723 4.86831C17.4771 3.89689 15.4372 3.22662 13.3205 2.92088L12.7735 4.83763C13.1569 4.77628 13.5455 4.7047 13.9443 4.63312L14.1079 5.54318C13.2387 5.69656 12.3287 5.89084 11.4237 5.89596C10.5137 5.89596 9.58314 5.68634 8.79068 5.02169L9.38375 4.31613C9.64961 4.53598 9.92569 4.69447 10.212 4.79673L10.2785 2.7404ZM16.1581 7.99216C14.7828 8.11487 13.5966 8.8153 12.4565 10.4565L12.1651 10.8757L11.7816 10.5485C10.0842 9.10673 8.68842 8.58012 7.14439 8.51365C8.79579 10.7581 9.38375 13.4576 9.27127 15.8913C9.17924 17.875 8.65775 19.7002 7.80904 21.004C8.26918 21.1982 8.74466 21.367 9.19969 21.4539C10.1455 21.643 10.9687 21.551 11.6845 20.779L11.9657 20.4774L12.298 20.7228C13.1825 21.3823 14.0721 21.3619 15.0486 21.0346C15.5036 20.8813 15.9689 20.6614 16.429 20.4058C14.4453 16.3565 14.3226 12.1795 16.1581 7.99216ZM13.2285 12.7623C13.2285 12.7623 14.2101 13.974 14.0977 14.6642C14.0568 14.9301 13.8165 15.2368 13.5506 15.2522C13.1927 15.2726 12.8297 14.8994 12.7223 14.5569C12.5434 13.9638 13.2285 12.7623 13.2285 12.7623ZM11.1272 12.9259C11.1272 12.9259 11.8276 14.2654 11.5873 14.8994C11.4902 15.1448 11.2039 15.3902 10.9482 15.3493C10.6057 15.3033 10.3296 14.8738 10.2989 14.5262C10.2427 13.928 11.1272 12.9259 11.1272 12.9259ZM18.06 20.5029C17.2522 21.0091 16.3319 21.5817 15.3349 21.9089C14.297 22.2515 13.1365 22.2975 12.073 21.6686C11.1681 22.4457 10.0433 22.5633 9.02075 22.3588C7.96242 22.1492 6.96545 21.6482 6.14742 21.2238C5.11465 21.6277 3.98986 21.7964 2.36863 21.776C3.20199 22.3742 4.34775 22.8701 5.68727 23.2331C7.58919 23.7444 9.85923 24 12.0986 24C14.3328 23.9949 16.5415 23.7341 18.3207 23.2382C19.6142 22.8803 20.6623 22.3844 21.3474 21.8271C20.7953 21.8169 20.33 21.8322 19.8597 21.7402C19.2308 21.6226 18.6531 21.2647 18.06 20.5029Z" fill="#1C274C"/>
</svg>
