<svg width="24" height="20" viewBox="0 0 24 20" fill="none" xmlns="http://www.w3.org/2000/svg">
<path d="M18.8567 4.47986H23.428V2.76562H18.8567V4.47986Z" fill="#1C274C"/>
<path d="M21.7139 12.7953V11.0811H17.1426V12.7953H21.7139Z" fill="#1C274C"/>
<path d="M11.4282 7.26403H15.9995V5.5498H11.4282V7.26403Z" fill="#1C274C"/>
<path d="M21.7139 1.71423V0H17.1426V1.71423H21.7139Z" fill="#1C274C"/>
<path d="M21.7139 7.26403V5.5498H17.1426V7.26403H21.7139Z" fill="#1C274C"/>
<path d="M7.42847 4.47986H11.9998V2.76562H7.42847V4.47986Z" fill="#1C274C"/>
<path d="M17.7141 4.47986V2.76562H13.1428V4.47986H17.7141Z" fill="#1C274C"/>
<path d="M1.71411 8.31543V10.0297H6.28542V8.31543H1.71411Z" fill="#1C274C"/>
<path d="M23.4292 10.0297V8.31543H18.8579V10.0297H23.4292Z" fill="#1C274C"/>
<path d="M10.2857 7.26403V5.5498H5.71436V7.26403H10.2857Z" fill="#1C274C"/>
<path d="M17.7141 10.0297V8.31543H13.1428V10.0297H17.7141Z" fill="#1C274C"/>
<path d="M10.2857 12.7953V11.0811H5.71436V12.7953H10.2857Z" fill="#1C274C"/>
<path d="M15.9995 12.7953V11.0811H11.4282V12.7953H15.9995Z" fill="#1C274C"/>
<path d="M11.9998 10.0297V8.31543H7.42847V10.0297H11.9998Z" fill="#1C274C"/>
<path d="M18.2852 13.8467H13.7139V15.5609H18.2852V13.8467Z" fill="#1C274C"/>
<path d="M11.4282 16.6123V18.3265H15.9995V16.6123H11.4282Z" fill="#1C274C"/>
<path d="M12.5713 13.8467H8V15.5609H12.5713V13.8467Z" fill="#1C274C"/>
<path d="M9.1426 1.71423V0H4.57129V1.71423H9.1426Z" fill="#1C274C"/>
<path d="M22.2858 13.8467H19.4287V15.5609H24V13.8467H22.2858Z" fill="#1C274C"/>
<path d="M17.1426 16.6123V18.3265H21.7139V16.6123H17.1426Z" fill="#1C274C"/>
<path d="M4.57131 7.26403V5.5498H0V7.26403H4.57131Z" fill="#1C274C"/>
<path d="M6.28542 4.47986V2.76562H1.71411V4.47986H6.28542Z" fill="#1C274C"/>
<path d="M4.57131 12.7953V11.0811H0V12.7953H4.57131Z" fill="#1C274C"/>
<path d="M0 16.6123V18.3265H4.57131V16.6123H0Z" fill="#1C274C"/>
<path d="M6.85696 13.8467H2.28564V15.5609H6.85696V13.8467Z" fill="#1C274C"/>
<path d="M5.71436 16.6123V18.3265H10.2857V16.6123H5.71436Z" fill="#1C274C"/>
<path d="M16.6128 9.23372L16.6127 9.2338C16.5929 9.2454 16.5785 9.26444 16.5727 9.28666L16.2205 10.6377L16.2205 10.6378C16.2084 10.6838 16.2361 10.7312 16.2826 10.7434L16.6128 9.23372ZM16.6128 9.23372C16.6323 9.2222 16.6558 9.21885 16.6782 9.22469L22.1751 10.6579C22.1974 10.6637 22.2164 10.6781 22.228 10.6979C22.2396 10.7177 22.2428 10.7413 22.2371 10.7636C22.2371 10.7636 22.2371 10.7636 22.2371 10.7636L21.8848 12.1146L21.8848 12.1147C21.8747 12.1535 21.8395 12.1794 21.8011 12.1794C21.7939 12.1794 21.7865 12.1785 21.7789 12.1766C21.7789 12.1766 21.7788 12.1766 21.7788 12.1766L20.1967 11.764L20.1483 11.7514L20.1357 11.7998L18.3471 18.6586L18.3471 18.6586C18.337 18.6975 18.3018 18.7234 18.2634 18.7234C18.2563 18.7234 18.2488 18.7225 18.2413 18.7206C18.2412 18.7206 18.2412 18.7206 18.2411 18.7205L16.174 18.1816C16.174 18.1816 16.174 18.1816 16.174 18.1816C16.1275 18.1694 16.0999 18.1221 16.1119 18.076L16.1119 18.0759L17.9004 11.2169L17.913 11.1685L17.8646 11.1559L16.2826 10.7434L16.6128 9.23372ZM17.8877 12.1946L19.7962 12.2606L19.7997 12.1606L17.8911 12.0946L17.8877 12.1946ZM19.2993 14.0791L17.3908 14.0131L17.3873 14.113L19.2959 14.179L19.2993 14.0791ZM19.014 15.1737L17.1054 15.1077L17.1019 15.2076L19.0105 15.2736L19.014 15.1737ZM18.7285 16.2682L16.8199 16.2022L16.8165 16.3022L18.725 16.3681L18.7285 16.2682ZM18.4431 17.363L16.5346 17.2969L16.5311 17.3968L18.4397 17.4629L18.4431 17.363ZM17.6728 13.0184L19.5814 13.0844L19.5848 12.9845L17.6763 12.9185L17.6728 13.0184Z" fill="#1C274C" stroke="white" stroke-width="0.1"/>
<path d="M0.260742 16.3403L16.2421 1.55666L20.146 0.861816L21.1516 2.80005L6.83429 17.9311L0.873298 19.0099L0.260742 16.3403Z" fill="white"/>
<path d="M21.2304 2.61032C21.0475 2.25842 20.4466 0.88603 20.2423 0.686818C20.221 0.666932 20.1972 0.651367 20.1663 0.651367L20.069 0.655906C20.0642 0.655906 20.0595 0.655906 20.0523 0.65814C19.8718 0.693591 16.6892 1.32441 16.3045 1.40187C16.2783 1.40626 16.257 1.41959 16.238 1.43508L0.410498 15.9929C0.248989 16.0947 0.127844 16.243 0.0613422 16.4135C0.00196533 16.564 -0.0122614 16.7322 0.0257002 16.9004L0.460358 18.7442C0.571999 19.2113 1.06836 19.5123 1.56479 19.4105L6.46456 18.4056C6.72341 18.3525 6.93247 18.1997 7.05833 18.0005L21.2185 2.76741C21.2636 2.72317 21.2589 2.66344 21.2303 2.61026L21.2304 2.61032ZM6.6878 15.3843C7.4692 14.6052 7.96084 14.2488 8.43585 13.9034C8.94172 13.536 9.46659 13.1553 10.3359 12.2699C11.2075 11.3845 11.5686 10.8666 11.9177 10.3641C12.2669 9.86385 12.6256 9.34593 13.4948 8.46495C14.3617 7.58396 14.8842 7.20331 15.3901 6.83807C15.896 6.4706 16.4209 6.08994 17.2902 5.20455C18.1618 4.31916 18.5229 3.80124 18.872 3.29875C19.2117 2.81182 19.5608 2.30931 20.3778 1.4704L20.8243 2.45761C20.012 3.29205 19.5061 3.67279 19.0193 4.04026C18.5086 4.42539 17.979 4.8216 17.1002 5.74021C16.2214 6.65659 15.8557 7.19223 15.5041 7.70798C15.1526 8.22374 14.7892 8.75499 13.9128 9.66912C13.0364 10.5833 12.5091 10.9795 11.9986 11.3624C11.4879 11.7476 10.9583 12.1438 10.0795 13.0624C9.20074 13.9788 8.83496 14.5144 8.48341 15.0302C8.15328 15.5149 7.81125 16.013 7.04414 16.8297L6.73534 15.5237C6.72343 15.4751 6.70681 15.4309 6.68779 15.3843L6.6878 15.3843ZM2.15616 15.5725C2.85205 14.9328 3.29623 14.6516 3.72608 14.3794C4.18447 14.0895 4.65948 13.7884 5.4409 13.0536C6.22232 12.3187 6.54054 11.8738 6.84693 11.4444C7.15331 11.015 7.46922 10.5723 8.24585 9.84186C9.02246 9.11138 9.49515 8.81258 9.95354 8.52263C10.4119 8.23269 10.8869 7.93165 11.6684 7.19678C12.4498 6.46191 12.768 6.01698 13.0744 5.58763C13.3808 5.15819 13.6967 4.7155 14.4733 3.98509C15.2499 3.25461 15.7226 2.95581 16.181 2.66586C16.6394 2.37592 17.1144 2.07489 17.891 1.3444L18.8696 1.14964C18.1856 1.81591 17.7509 2.10147 17.3305 2.37815C16.8935 2.66369 16.4422 2.96027 15.7131 3.68188C14.9839 4.40349 14.6918 4.83957 14.4115 5.2623C14.1312 5.68288 13.8415 6.1167 13.1171 6.83608C12.3904 7.55323 11.9415 7.84764 11.5092 8.13317C11.0723 8.41871 10.621 8.7153 9.89183 9.43691C9.16268 10.1585 8.87051 10.5946 8.59025 11.0173C8.30999 11.4379 8.02021 11.8717 7.29588 12.5889C6.56912 13.306 6.12025 13.6004 5.68799 13.886C5.25333 14.1715 4.80444 14.4659 4.08011 15.1808L2.15616 15.5725ZM16.371 1.66523C16.39 1.6475 16.4137 1.63648 16.4375 1.63201L17.7936 1.36418C17.055 2.05034 16.5942 2.34252 16.1501 2.62366C15.6917 2.91361 15.2167 3.21464 14.4353 3.94951C13.6539 4.68439 13.3356 5.12931 13.0293 5.55867C12.7229 5.9881 12.407 6.4308 11.6279 7.1612C10.8513 7.89169 10.3786 8.19049 9.92024 8.48043C9.46185 8.77038 8.98684 9.07141 8.20542 9.80628C7.42402 10.5412 7.10578 10.9861 6.79939 11.4154C6.49301 11.8449 6.17711 12.2876 5.40048 13.018C4.62387 13.7485 4.15117 14.0473 3.69278 14.3372C3.24862 14.6183 2.79021 14.9105 2.05635 15.5901L1.0137 15.8048L16.371 1.66523ZM5.95152 17.0134C5.66656 17.071 5.58576 17.3543 5.46228 17.4827C5.33881 17.6111 5.20815 17.7461 4.90655 17.8081C4.60496 17.8701 4.42683 17.7992 4.2558 17.7306C4.08478 17.6621 3.92327 17.5979 3.6383 17.6554C3.35333 17.713 3.23458 17.8369 3.11102 17.9653C2.98755 18.0937 2.85688 18.2288 2.55529 18.2907C2.25369 18.3527 2.07556 18.2819 1.90454 18.2133C1.73351 18.1447 1.53405 17.9211 1.249 17.9787C1.23477 17.9809 1.22047 17.972 1.21575 17.9588C1.21336 17.9455 1.22287 17.9322 1.23709 17.9278C1.53869 17.8658 1.71682 17.9367 1.88784 18.0053C2.05887 18.0738 2.22037 18.138 2.50534 18.0805C2.79031 18.0229 2.90906 17.899 3.03263 17.7706C3.1561 17.6422 3.28676 17.5071 3.58835 17.4452C3.88995 17.3832 4.06808 17.454 4.2391 17.5226C4.41013 17.5912 4.57164 17.6554 4.8566 17.5978C5.14157 17.5403 5.26033 17.4163 5.38389 17.2879C5.50736 17.1595 5.63802 17.0245 5.93962 16.9625C5.95384 16.9603 5.96815 16.9692 5.97286 16.9824C5.97526 16.9958 5.96583 17.009 5.95152 17.0134ZM5.71881 16.0285C5.43384 16.086 5.35305 16.3693 5.22956 16.4977C5.10609 16.6261 4.97543 16.7612 4.67383 16.8231C4.37224 16.8851 4.19411 16.8143 4.02308 16.7457C3.85207 16.6771 3.69055 16.6129 3.40558 16.6705C3.12062 16.728 3.00186 16.852 2.8783 16.9804C2.75483 17.1088 2.62417 17.2438 2.32257 17.3058C2.02098 17.3677 1.84285 17.2969 1.67182 17.2283C1.5008 17.1597 1.30133 16.9361 1.01628 16.9937C1.00206 16.9959 0.987752 16.9871 0.983036 16.9738C0.978319 16.9606 0.990149 16.9472 1.00437 16.9428C1.30597 16.8809 1.4841 16.9517 1.65512 17.0203C1.82614 17.0889 1.98765 17.1531 2.27262 17.0955C2.55759 17.0379 2.67635 16.914 2.79991 16.7856C2.92338 16.6572 3.05404 16.5222 3.35564 16.4602C3.65723 16.3982 3.83536 16.4691 4.00639 16.5377C4.1774 16.6063 4.33892 16.6705 4.62389 16.6129C4.90886 16.5553 5.02761 16.4314 5.15117 16.303C5.27464 16.1746 5.40531 16.0396 5.7069 15.9776C5.72113 15.9754 5.73543 15.9842 5.74015 15.9975C5.74254 16.013 5.73303 16.0262 5.71881 16.0285ZM5.6285 14.8598L4.1726 15.1586C4.859 14.4879 5.29605 14.2024 5.7164 13.9257C6.15338 13.6401 6.60466 13.3436 7.33381 12.6219C8.06296 11.9003 8.35513 11.4643 8.63539 11.0415C8.91565 10.6209 9.20542 10.1871 9.92976 9.46998C10.6565 8.75283 11.1054 8.45842 11.5376 8.17289C11.9746 7.88735 12.4259 7.59076 13.1551 6.86915C13.8842 6.14754 14.1764 5.71147 14.4566 5.28873C14.7369 4.86816 15.0267 4.43433 15.751 3.71496C16.4778 2.99781 16.9266 2.7034 17.3589 2.41786C17.7912 2.13456 18.24 1.84015 18.9597 1.12962L19.2613 1.06989C19.3895 1.0433 19.4774 1.18719 19.3895 1.27797L6.04894 14.8665C5.91588 14.8355 5.77108 14.831 5.62851 14.8598L5.6285 14.8598ZM6.31257 14.9705L19.9835 1.04994C20.0429 0.990205 20.145 0.996835 20.1925 1.0632L20.354 1.41956C19.5227 2.27173 19.1688 2.77863 18.8268 3.27224C18.4777 3.7725 18.119 4.29042 17.2498 5.1714C16.3828 6.0524 15.8604 6.43304 15.3544 6.79828C14.8485 7.16575 14.3237 7.54641 13.4544 8.4318C12.5827 9.31719 12.2217 9.83511 11.8725 10.3376C11.5234 10.8379 11.1647 11.3558 10.2955 12.2368C9.42855 13.1178 8.90607 13.4984 8.40012 13.8636C7.92511 14.2089 7.43586 14.5631 6.66157 15.3356C6.58572 15.1829 6.46218 15.0567 6.31257 14.9704L6.31257 14.9705ZM20.8789 2.74988L7.17947 17.4208C7.17707 17.403 7.17475 17.3853 7.16996 17.3698L7.05832 16.8939C7.84684 16.0572 8.19358 15.5503 8.52851 15.0589C8.88006 14.5432 9.24342 14.0119 10.1198 13.0978C10.9962 12.1837 11.5235 11.7875 12.0341 11.4045C12.5447 11.0194 13.0743 10.6231 13.9531 9.70454C14.8319 8.78816 15.1977 8.25252 15.5492 7.73676C15.9008 7.22101 16.2641 6.68976 17.1405 5.77563C18.0169 4.86148 18.5442 4.46527 19.0548 4.08231C19.5417 3.71706 20.0451 3.33635 20.8503 2.51076L20.8883 2.59708C20.924 2.64139 20.9193 2.70559 20.8788 2.74991L20.8789 2.74988Z" fill="#1C274C"/>
</svg>
