<svg width="22" height="22" viewBox="0 0 22 22" fill="none" xmlns="http://www.w3.org/2000/svg">
<path d="M14.7547 7.38492C14.7466 7.21341 14.5536 5.70848 10.3075 5.70848C10.2132 5.70848 10.1167 5.7091 10.018 5.71062C8.41391 5.73639 7.35622 5.93492 6.65628 6.1875C6.65413 6.15002 6.65177 6.11068 6.64928 6.06877C6.64291 5.96659 6.63376 5.8162 6.63799 5.75573C6.65649 5.73959 6.70013 5.71445 6.73033 5.6972C6.84968 5.62869 7.07163 5.50081 7.07933 5.21777C7.08383 5.05262 6.99163 4.9147 6.91058 4.79299C6.89056 4.76321 6.8614 4.71936 6.84373 4.68936C6.86264 4.66726 6.88883 4.63976 6.90864 4.61933C7.01823 4.50524 7.18399 4.33309 7.12762 4.09626C7.09402 3.95605 6.97799 3.8394 6.84352 3.70426C6.80051 3.66103 6.73241 3.59252 6.70415 3.55553C6.70519 3.51404 6.72375 3.43001 6.7365 3.37209C6.77439 3.20016 6.81713 3.00543 6.7365 2.83329C6.67055 2.69239 6.51323 2.62242 6.29578 2.52538C6.24535 2.50301 6.17026 2.46941 6.12129 2.44385C6.11789 2.39189 6.11935 2.31362 6.12025 2.26103C6.12364 2.06098 6.12683 1.8718 6.03296 1.73262C5.91887 1.56346 5.70122 1.50111 5.50927 1.44619C5.44928 1.42894 5.36179 1.40407 5.32369 1.38579C5.30388 1.3481 5.27728 1.25812 5.26072 1.20215C5.21092 1.03382 5.15924 0.859949 5.02389 0.755072C4.88985 0.651233 4.70018 0.629759 4.48995 0.648046C4.45268 0.651233 4.41569 0.654835 4.37974 0.654835C4.34718 0.654835 4.33353 0.650124 4.33443 0.652064C4.31275 0.635023 4.27188 0.562911 4.24715 0.519476C4.17504 0.392848 4.0854 0.235384 3.90537 0.168954C3.75387 0.11319 3.5568 0.15981 3.40273 0.207469C3.35057 0.22361 3.27208 0.247923 3.25331 0.249379C3.22033 0.241482 3.12689 0.192369 3.06517 0.15981C2.91277 0.0795938 2.76875 0.0036017 2.60998 0C2.37335 0 2.25441 0.118524 2.18333 0.189395C2.14329 0.229157 2.1293 0.242389 2.09674 0.252364C2.09058 0.254303 2.01292 0.253195 1.95286 0.246822C1.76473 0.226178 1.59278 0.238301 1.46388 0.325584C1.38068 0.381764 1.3281 0.475004 1.2485 0.616043C1.21809 0.669868 1.16572 0.762484 1.13192 0.809251C1.09534 0.817148 1.03424 0.825184 0.9906 0.830934C0.818667 0.853308 0.640981 0.876653 0.526688 0.991161C0.365145 1.15333 0.388768 1.40013 0.407749 1.59847C0.411143 1.63483 0.415646 1.66871 0.416269 1.69593C0.390708 1.72807 0.336261 1.78363 0.29816 1.82215C0.156222 1.96602 0.0221889 2.102 0.00236271 2.27352C-0.018696 2.46034 0.104746 2.61441 0.224104 2.76362C0.243223 2.78745 0.267537 2.81766 0.287764 2.84467C0.276473 2.86171 0.263934 2.88 0.251189 2.8994C0.0811265 3.15432 0.00110893 3.28947 0.00132174 3.42628C0.00152956 3.65017 0.186904 3.78379 0.322052 3.88147C0.342072 3.89595 0.368257 3.91465 0.387168 3.92809C0.378856 3.97471 0.362508 4.04086 0.350593 4.08963C0.295244 4.31311 0.238025 4.5442 0.377193 4.70864C0.476599 4.82592 0.636831 4.8778 0.791929 4.92824C0.812364 4.93482 0.837441 4.94292 0.860855 4.95103C0.864041 4.99529 0.866189 5.04995 0.867643 5.09193C0.874432 5.27689 0.880597 5.43669 0.950424 5.55307C1.04685 5.71309 1.23132 5.71967 1.40964 5.72611C1.44219 5.72736 1.48729 5.72888 1.52601 5.73186C1.53412 5.79206 1.54111 5.87103 1.54603 5.92638C1.56903 6.18519 1.5858 6.37222 1.70439 6.48458C1.84356 6.61696 2.04209 6.61696 2.13789 6.61696L2.27151 6.61544C2.28128 6.61544 2.29001 6.61544 2.29811 6.61564C2.30705 6.65991 2.31619 6.71249 2.32277 6.75038C2.36302 6.98342 2.39212 7.15196 2.52879 7.24173C2.68499 7.34473 2.9165 7.2934 3.09335 7.22981C3.11781 7.22087 3.1487 7.20979 3.17634 7.20086C3.19401 7.23618 3.2134 7.27726 3.2274 7.30726C3.31378 7.49241 3.38852 7.65223 3.54508 7.71077C3.58532 7.72587 3.62806 7.73356 3.67233 7.73356C3.81704 7.73356 3.94193 7.65251 4.05222 7.58116C4.07224 7.56821 4.09773 7.55158 4.12031 7.53793C4.16007 7.56751 4.2114 7.61025 4.24673 7.63983C4.40183 7.76882 4.53574 7.88028 4.68724 7.8933C4.69472 7.89392 4.71578 7.89482 4.72319 7.89482C4.96619 7.89482 5.08964 7.69692 5.1558 7.59073C5.16155 7.58138 5.16855 7.5705 5.1754 7.55963C5.18988 7.56898 5.20436 7.57874 5.21565 7.58643C5.2401 7.60306 5.26587 7.61961 5.29247 7.63562V17.7475C5.29247 17.7709 5.29566 17.7943 5.30162 17.8168C5.32164 17.8913 5.84173 19.6372 10.0315 19.7089C10.1107 19.7101 10.1886 19.711 10.2654 19.711H10.2656C14.2548 19.711 14.7304 17.8525 14.7487 17.7734C14.7532 17.7538 14.7555 17.7337 14.7555 17.7136L14.7547 7.38492ZM10.0264 6.24263C10.1219 6.24111 10.2158 6.24048 10.3073 6.24048C13.2213 6.24048 13.9718 6.95447 14.1611 7.27132C13.6893 7.50581 12.3317 8.07384 10.2436 8.07384C7.93221 8.07384 6.43 7.5065 5.90224 7.26946C5.91589 7.25159 5.93245 7.23198 5.95073 7.21155C6.02714 7.1528 6.10078 7.08623 6.16416 7.02472C6.2042 6.99598 6.24888 6.96661 6.29868 6.93661C6.36699 6.92767 6.46424 6.89934 6.54557 6.80679C7.1267 6.5365 8.1671 6.27243 10.0263 6.24265L10.0264 6.24263Z" fill="#1C274C"/>
<path fill-rule="evenodd" clip-rule="evenodd" d="M17.6413 1.96808C17.58 2.06009 17.5182 2.17184 17.4609 2.27544L17.1589 2.82129L14.511 4.12268C14.4396 4.15774 14.3957 4.17931 14.3538 4.20084C12.8312 4.98267 11.7585 6.45177 11.4356 8.1648C11.4267 8.21202 11.4182 8.26133 11.4042 8.34274L11.4031 8.34947C11.3882 8.43645 11.3816 8.47477 11.3748 8.51175C11.1255 9.87489 10.4788 11.119 9.52776 12.0758C9.50199 12.1018 9.47505 12.1283 9.41336 12.1889L8.66009 12.9296C8.18809 13.3936 7.80759 13.7678 7.52312 14.0896C7.23273 14.4182 6.99861 14.7394 6.85792 15.1088C6.48225 16.0952 6.60867 17.2131 7.19817 18.0869C7.41927 18.4146 7.72074 18.6727 8.07771 18.9239C8.42722 19.1697 8.88188 19.4436 9.44513 19.7829L10.1128 20.1851C10.6759 20.5243 11.1306 20.7982 11.5097 20.9913C11.8956 21.1877 12.2652 21.3339 12.6572 21.3708C13.7037 21.469 14.7164 21.0102 15.3541 20.1685C15.5917 19.855 15.7405 19.4834 15.867 19.0599C15.9916 18.6431 16.1116 18.1134 16.261 17.4539L16.499 16.4039C16.5184 16.318 16.527 16.2801 16.5357 16.2436C16.8564 14.8975 17.5675 13.6933 18.5669 12.7932C18.594 12.7687 18.6223 12.7438 18.6871 12.6868L18.6922 12.6823C18.7527 12.6291 18.7896 12.5965 18.8247 12.5646C20.0963 11.4061 20.7684 9.70437 20.6578 7.96306C20.6547 7.91507 20.6506 7.86516 20.6441 7.78276L20.399 4.72329L20.7315 4.12223C20.7851 4.02554 20.8435 3.92017 20.8867 3.82464C20.9359 3.71607 20.9908 3.56813 20.9989 3.38759C21.0098 3.14652 20.9459 2.90797 20.816 2.7046C20.7187 2.55229 20.5973 2.45156 20.5004 2.38208C20.4153 2.32094 20.3121 2.25881 20.2174 2.2018L19.4538 1.74183C19.3524 1.68072 19.2431 1.61481 19.144 1.56577C19.0323 1.51049 18.8776 1.44714 18.6869 1.43569C18.4342 1.42054 18.1835 1.48768 17.9723 1.62704C17.8128 1.73223 17.7105 1.86438 17.6413 1.96808ZM17.6324 4.1537L19.0107 4.98395L19.2433 7.88797C19.2481 7.94785 19.2511 7.9847 19.2532 8.01288L18.265 8.34223C17.6761 8.53854 17.0278 8.42292 16.543 8.03511C15.5577 7.24689 14.2041 7.10348 13.0756 7.66776L13.0197 7.6957C13.3865 6.71847 14.0896 5.91553 14.9955 5.45041C15.0251 5.4352 15.0573 5.41934 15.137 5.38016L17.6324 4.1537Z" fill="#1C274C"/>
<path d="M11.9999 8C11.5877 9.68331 11.2662 10.4621 10.4999 11.5C9.11256 12.7145 8.30932 13.205 6.9999 15C6.56997 15.8434 6.3707 16.7701 6.5 17C6.43663 17.7028 7.02789 18.0396 7.4999 18.5" stroke="white" stroke-width="0.1"/>
<path fill-rule="evenodd" clip-rule="evenodd" d="M14.6625 6H21.3375C21.5244 6 21.6764 6.1707 21.6802 6.38284L21.9907 11.2356C22.1439 13.6326 20.3842 15.5986 18.3429 15.7982V20.2181H19.909C20.3604 20.2181 20.3604 21 19.909 21H16.0909C15.6396 21 15.6396 20.2181 16.0909 20.2181H17.6571L17.6571 15.7982C15.6156 15.5989 13.8561 13.6328 14.0093 11.2356L14.3211 6.36353C14.3338 6.15768 14.4842 5.99968 14.6625 6Z" fill="#1C274C"/>
<path d="M14.5 7.5C14.1277 9.61197 13.8236 10.8846 14 12.5C14.6839 14.0512 15.1292 14.5677 16 15L17 15.5" stroke="white" stroke-width="0.1"/>
<path d="M19 6H20.5" stroke="white" stroke-width="0.1"/>
</svg>
