<svg width="23" height="24" viewBox="0 0 23 24" fill="none" xmlns="http://www.w3.org/2000/svg">
<path fill-rule="evenodd" clip-rule="evenodd" d="M5.48783 2.36865H6.57506C9.03431 2.36865 11.0828 4.7808 11.4506 7.87552C11.5158 8.42395 11.0617 8.87335 10.5094 8.87335H1.5653C1.00841 8.87335 0.552686 8.41664 0.624533 7.86441C1.02647 4.77503 3.06928 2.36865 5.48783 2.36865Z" fill="#1C274C"/>
<path fill-rule="evenodd" clip-rule="evenodd" d="M4.71998 0H7.34803C7.50967 0 7.64076 0.214905 7.64076 0.389192V2.15613C7.64076 2.37104 7.50967 2.54533 7.34803 2.54533H4.71998C4.55834 2.54533 4.42725 2.33042 4.42725 2.15613V0.389192C4.42725 0.174287 4.55834 0 4.71998 0Z" fill="#1C274C"/>
<path fill-rule="evenodd" clip-rule="evenodd" d="M1.89896 8.85449H10.1239C10.7936 8.85449 11.3366 9.24982 11.3366 9.57034C11.3366 9.96567 10.7937 10.2862 10.1239 10.2862H1.89896C1.22923 10.2862 0.686279 9.89087 0.686279 9.57034C0.686279 9.17502 1.22918 8.85449 1.89896 8.85449Z" fill="#1C274C"/>
<path fill-rule="evenodd" clip-rule="evenodd" d="M1.94315 10.271H10.1681C10.8378 10.271 11.3808 10.6663 11.3808 10.9868C11.3808 11.3822 10.8378 11.7027 10.1681 11.7027H1.94315C1.27342 11.7027 0.730469 11.3074 0.730469 10.9868C0.730469 10.5915 1.27337 10.271 1.94315 10.271Z" fill="#1C274C"/>
<path fill-rule="evenodd" clip-rule="evenodd" d="M1.93339 11.7017H10.1583C10.828 11.7017 11.371 12.097 11.371 12.4175C11.371 12.8128 10.8281 13.1334 10.1583 13.1334H1.93339C1.26365 13.1334 0.720703 12.738 0.720703 12.4175C0.720703 12.0222 1.26361 11.7017 1.93339 11.7017Z" fill="#1C274C"/>
<path fill-rule="evenodd" clip-rule="evenodd" d="M2.20304 13.0908H9.79679C10.411 13.0908 10.909 13.8343 10.909 14.437V22.6537C10.909 23.3972 10.4111 23.9999 9.79679 23.9999H2.20304C1.58879 23.9999 1.09082 23.2564 1.09082 22.6537V14.437C1.09082 13.6936 1.58875 13.0908 2.20304 13.0908Z" fill="#1C274C"/>
<path d="M17.7821 15.7841C17.2454 17.0623 15.9849 18.2852 14.3094 19.1428C13.0957 19.7625 11.7759 20.1305 10.5591 20.1886V21.3091C10.5591 22.7036 13.1425 23.8407 16.3187 23.8407C19.4887 23.8407 22.0659 22.7036 22.0659 21.3091V13.2056C21.5917 13.2471 20.8147 13.3965 19.8819 13.8724C18.6713 14.4976 18.0036 15.2695 17.782 15.7841L17.7821 15.7841Z" fill="#1C274C"/>
<path d="M15.2203 14.9404C14.9769 15.5186 14.2468 16.3708 12.9426 17.0403C11.9317 17.5632 11.0705 17.7154 10.5588 17.7541V19.8374C11.7039 19.7765 12.9582 19.4307 14.1095 18.8386C15.7038 18.0225 16.9082 16.866 17.4136 15.6625C17.657 15.0898 18.3808 14.2404 19.685 13.5681C20.4807 13.167 21.3169 12.9235 22.0688 12.8599V10.771C20.9331 10.8263 19.6819 11.1777 18.5181 11.7726C16.927 12.5861 15.7259 13.7425 15.2202 14.9404L15.2203 14.9404Z" fill="#1C274C"/>
<path d="M16.3217 9.47318C13.6509 9.47318 11.4294 8.71235 10.562 7.61675V17.3997C11.0362 17.3582 11.8194 17.2143 12.7461 16.7329C13.9661 16.1132 14.6338 15.3385 14.8553 14.8156C15.3919 13.5429 16.6524 12.32 18.3217 11.4679C19.5478 10.8426 20.8677 10.4747 22.072 10.4193V7.6167C21.2078 8.7123 18.9925 9.47314 16.3217 9.47314L16.3217 9.47318Z" fill="#1C274C"/>
<path d="M21.1796 5.24854C21.1421 6.35241 19.0236 7.21564 16.3185 7.21564C13.6103 7.21564 11.4918 6.35241 11.4543 5.24854C10.8803 5.64966 10.5651 6.11727 10.5588 6.58207V6.58756V6.60693C10.5807 7.99575 13.1516 9.1246 16.3185 9.1246C19.4885 9.1246 22.0657 7.9875 22.0657 6.59309C22.0689 6.12009 21.7538 5.65528 21.1796 5.24858L21.1796 5.24854Z" fill="#1C274C"/>
<path d="M16.3217 3.5801C13.8974 3.5801 11.8506 4.32987 11.8506 5.22073C11.8506 6.1116 13.8973 6.86686 16.3217 6.86686C18.7397 6.86686 20.7927 6.11151 20.7927 5.22073C20.7927 4.96892 20.6087 4.75045 20.4152 4.58166L19.5291 5.30097C19.186 5.58043 18.7678 5.72146 18.3623 5.72146C18.0097 5.72146 17.6727 5.61356 17.4106 5.39499C16.8739 4.95783 16.8271 4.21636 17.2671 3.62151C16.9675 3.59665 16.6524 3.58008 16.3216 3.58008L16.3217 3.5801Z" fill="#1C274C"/>
<path d="M19.2609 5.04394L20.9332 3.68546C21.2016 3.46688 21.3544 3.16807 21.3544 2.84718C21.3544 2.5262 21.2078 2.22747 20.9394 2.0089C20.6961 1.81248 20.3934 1.70459 20.0721 1.70459C20.0346 1.70459 19.9972 1.70459 19.9629 1.71008C19.604 1.73224 19.2796 1.88714 19.058 2.14445L17.6571 3.72429C17.2515 4.19188 17.2578 4.79773 17.679 5.13806C18.0939 5.47831 18.7772 5.43957 19.2609 5.04394ZM18.7772 3.17365L19.4667 2.26899C19.4729 2.26071 19.4761 2.25512 19.4886 2.24684C19.7944 1.95629 20.3309 1.95629 20.6866 2.25233C20.8551 2.39346 20.9612 2.5788 20.9799 2.77523C21.0018 2.97994 20.9331 3.17086 20.7803 3.3175L19.7974 4.01196C19.7599 4.03411 19.7194 4.04789 19.6726 4.04789C19.6258 4.04789 19.579 4.03402 19.5416 4.00088L18.8115 3.40323C18.7397 3.34244 18.7242 3.2484 18.7772 3.17365ZM17.8724 3.9677C18.1563 3.69652 18.6305 3.67716 18.9364 3.93177C19.2422 4.178 19.264 4.60407 18.9769 4.87246C18.8302 5.01359 18.6306 5.08825 18.4247 5.08825C18.2468 5.08825 18.0627 5.02737 17.913 4.91119C17.7663 4.78943 17.6821 4.62624 17.6758 4.4436C17.6665 4.26374 17.7351 4.09776 17.8724 3.9677Z" fill="#1C274C"/>
<path d="M18.4403 4.73669C18.5339 4.73119 18.6243 4.69517 18.6868 4.63429C18.8241 4.50424 18.8116 4.30233 18.6649 4.18606C18.5963 4.13077 18.5121 4.10303 18.4216 4.10303C18.328 4.10303 18.2313 4.13626 18.1596 4.20543C18.0972 4.26631 18.0659 4.34655 18.0659 4.4295C18.0721 4.51803 18.1127 4.59269 18.1814 4.65357C18.2563 4.70905 18.3342 4.73669 18.4403 4.73669Z" fill="#1C274C"/>
<path d="M20.5184 3.0575C20.5652 3.0049 20.6026 2.90808 20.5932 2.80568C20.5776 2.695 20.5184 2.5899 20.4185 2.50686C20.225 2.34916 19.9443 2.33529 19.782 2.47921L19.2048 3.24284L19.6822 3.64126L20.5184 3.0575Z" fill="#1C274C"/>
<path d="M5.7443 12.5072L3.47534 11.1126L4.88099 8.31236L6.16488 7.70361H9.78414L10.9242 9.29742L11.9092 8.98751L10.3597 11.5996H7.67014L8.43384 10.8801L7.67014 9.29742L5.7443 12.5072Z" fill="white"/>
<path d="M9.91933 12.7907L12.257 11.5146L13.9886 14.1259L13.8789 15.5425L12.0806 18.6834L10.131 18.8807L9.91046 19.8896L8.41362 17.247L9.75002 14.9129L9.99487 15.9332L11.7479 16.0569L9.91933 12.7907Z" fill="white"/>
<path d="M7.17193 16.1012L7.03645 18.761L3.90515 18.8706L2.75521 18.036L1.01935 14.8602L1.8711 13.0954L1.12671 12.3797L4.16192 12.4866L5.45188 14.8466L4.45431 14.5215L3.43179 15.9507L7.17193 16.1012Z" fill="white"/>
<path d="M7.20815 15.9557L3.82321 15.8264C4.08654 15.4594 4.3729 15.1095 4.6805 14.7788L5.47314 15.2388H5.47319C5.50791 15.2593 5.54834 15.2678 5.58838 15.2632C5.62842 15.2585 5.66582 15.2408 5.69489 15.2129C5.72387 15.1851 5.74296 15.1486 5.74931 15.1089C5.75561 15.0692 5.74883 15.0286 5.73 14.9931L4.32755 12.3324C4.31231 12.3037 4.28976 12.2795 4.26221 12.2623C4.23461 12.2451 4.20299 12.2355 4.17051 12.2345L1.17179 12.131C1.13327 12.1278 1.0947 12.1368 1.06157 12.1567C1.02844 12.1766 1.00236 12.2064 0.987024 12.2419C0.972468 12.2757 0.968408 12.3132 0.975319 12.3494C0.982229 12.3856 0.999807 12.4189 1.02581 12.4451L1.7464 13.1657C1.63001 13.3616 1.38796 13.7551 1.14959 14.0896C0.752318 14.6568 1.07383 15.3145 1.09046 15.3478C1.10709 15.3811 1.70756 16.486 2.6351 18.0639V18.0639C2.76998 18.3418 2.97578 18.5792 3.23173 18.7521C3.48768 18.925 3.78475 19.0273 4.09292 19.0487C4.5881 19.0709 5.09066 19.0727 5.5711 19.0727H6.21041H6.81275H7.08251C7.30054 19.0727 7.35966 19.0469 7.38921 18.9249V18.9249C7.39098 18.9102 7.39098 18.8953 7.38921 18.8806V16.1405C7.38921 16.0921 7.37025 16.0456 7.33639 16.0111C7.30257 15.9766 7.25648 15.9567 7.20815 15.9557L7.20815 15.9557ZM1.46181 14.3131C1.80176 13.8291 2.13252 13.26 2.14729 13.236V13.2359C2.16776 13.2006 2.17592 13.1596 2.17061 13.1191C2.16526 13.0787 2.14668 13.0411 2.11775 13.0124L1.62628 12.5209L4.05049 12.5985L5.10365 14.5958L4.73411 14.3852V14.3851C4.69882 14.3647 4.65775 14.3565 4.61728 14.3619C4.57686 14.3672 4.53932 14.3858 4.51056 14.4147C4.4348 14.4905 2.91971 16.0222 2.66286 17.3913C1.90529 16.0851 1.42118 15.1926 1.41753 15.187C1.41381 15.1815 1.19025 14.7011 1.46184 14.3131L1.46181 14.3131ZM7.01598 18.7198H6.81272H6.21224H5.5877C5.10548 18.7198 4.60473 18.7198 4.10952 18.6958C3.66517 18.6608 3.26393 18.4166 3.02863 18.038C2.8956 17.4837 3.19124 16.8001 3.58294 16.1903L7.01586 16.3233L7.01598 18.7198Z" fill="#1C274C"/>
<path d="M10.4768 11.7612C10.5424 11.7608 10.6028 11.7256 10.6357 11.6688L12.1453 9.08206C12.1736 9.03904 12.1828 8.98609 12.1705 8.93603C12.1581 8.88598 12.1255 8.84335 12.0803 8.81842C12.0352 8.79354 11.9817 8.78862 11.9328 8.8049L10.9572 9.09683C10.8408 8.90095 10.608 8.50187 10.4214 8.13048C10.1109 7.51152 9.3811 7.48193 9.34417 7.48193C9.3072 7.48193 8.05075 7.48193 6.21974 7.5503C5.91101 7.53653 5.60414 7.60464 5.33027 7.74772C5.0564 7.89081 4.82524 8.10383 4.6603 8.36514C4.40531 8.78828 4.16698 9.22986 3.93599 9.65856L3.63849 10.2129C3.54239 10.3976 3.45372 10.5676 3.3521 10.745L3.33361 10.7764C3.13036 11.1312 3.08785 11.2051 3.20612 11.3122H3.20616C3.21726 11.323 3.2297 11.3323 3.24313 11.3399L5.66911 12.6481H5.66907C5.71118 12.671 5.7605 12.6767 5.80671 12.664C5.85288 12.6512 5.89232 12.621 5.91667 12.5797L7.64054 9.66225V9.66229C7.83637 10.0669 8.00667 10.4835 8.15049 10.9095L7.37262 11.3917C7.32706 11.42 7.296 11.4666 7.2875 11.5195C7.27899 11.5724 7.29389 11.6264 7.32831 11.6675C7.36269 11.7086 7.41327 11.7327 7.46686 11.7335L10.4749 11.7613L10.4768 11.7612ZM5.68763 12.2342L3.57578 11.0924L3.65525 10.9538L3.67741 10.915C3.77165 10.7303 3.86218 10.5603 3.9638 10.3829L4.2613 9.82857C4.49043 9.40543 4.72689 8.96756 4.97817 8.54996V8.54992C5.22047 8.17632 5.62565 7.9398 6.07012 7.91247C6.62443 8.05659 7.08264 8.64231 7.43741 9.2687L5.68763 12.2342ZM8.11361 11.3695L8.47019 11.1496C8.50513 11.1284 8.53204 11.0963 8.54677 11.0582C8.56145 11.02 8.56313 10.9781 8.55147 10.939C8.52007 10.8373 7.89373 8.77349 6.80726 7.90144C8.31873 7.85527 9.3312 7.85341 9.33861 7.85341C9.34602 7.85341 9.87815 7.87375 10.0925 8.2987C10.3567 8.82714 10.7003 9.38883 10.7133 9.40737V9.40732C10.7344 9.44226 10.7666 9.46917 10.8047 9.4839C10.8428 9.49858 10.8847 9.50027 10.9239 9.48861L11.5909 9.28907L10.3678 11.3917L8.11361 11.3695Z" fill="#1C274C"/>
<path d="M14.0314 13.8989C13.7948 13.4665 13.5325 13.036 13.2794 12.6221L12.9541 12.0919C12.8488 11.9182 12.7435 11.7445 12.6363 11.5745L12.6197 11.5431C12.4165 11.1884 12.3721 11.1145 12.2206 11.1736V11.1736C12.2054 11.177 12.191 11.1833 12.1781 11.192L9.82789 12.6204C9.78677 12.6453 9.75697 12.6854 9.74492 12.7319C9.73283 12.7785 9.73939 12.828 9.76323 12.8698L11.4262 15.8261H11.4261C10.9762 15.7927 10.5288 15.731 10.0866 15.6413L10.0644 14.7174C10.0634 14.6635 10.0388 14.6127 9.99711 14.5785C9.95548 14.5442 9.90093 14.5298 9.8478 14.5391C9.79468 14.5485 9.74829 14.5805 9.72078 14.6269L8.18344 17.2137V17.2137C8.15044 17.2708 8.15044 17.3413 8.18344 17.3985L9.66163 20.0074V20.0074C9.67791 20.0356 9.70136 20.059 9.72956 20.0752C9.75781 20.0914 9.78981 20.0999 9.82238 20.0998H9.84825C9.8847 20.0946 9.91878 20.0787 9.94612 20.0539C9.97342 20.0292 9.99277 19.997 10.0016 19.9612L10.2326 18.9671C10.4598 18.9671 10.9218 18.9671 11.3412 18.9912C12.0341 19.0337 12.4258 18.4165 12.4499 18.3851C12.4739 18.3537 13.1003 17.2654 13.965 15.6505V15.6506C14.2976 15.1202 14.3229 14.453 14.0315 13.899L14.0314 13.8989ZM12.2151 11.5911C12.2372 11.6262 12.2631 11.6706 12.2945 11.726L12.3185 11.7666C12.4257 11.9384 12.531 12.1121 12.6345 12.2839L12.9578 12.8142C13.2091 13.2263 13.4677 13.6512 13.6969 14.078V14.0781C13.8975 14.4755 13.8975 14.9445 13.6969 15.3419C13.2978 15.741 12.5568 15.8482 11.8381 15.8407L10.1826 12.842L12.2151 11.5911ZM12.1227 18.2003C12.1227 18.2003 11.827 18.6567 11.3577 18.6271C10.7683 18.5901 10.1105 18.6031 10.0829 18.605H10.0829C10.0407 18.6037 9.99933 18.617 9.96573 18.6425C9.93208 18.6681 9.90824 18.7044 9.89813 18.7454L9.73552 19.4216L8.54558 17.3134L9.70036 15.3734L9.71146 15.7928C9.71025 15.835 9.72351 15.8764 9.74903 15.91C9.7746 15.9436 9.81088 15.9675 9.85187 15.9776C10.4722 16.1178 11.1045 16.1982 11.7403 16.2178C12.287 16.2464 12.8342 16.1718 13.3532 15.9979C12.6345 17.3171 12.1264 18.1948 12.1227 18.2003L12.1227 18.2003Z" fill="#1C274C"/>
</svg>
