<svg width="24" height="23" viewBox="0 0 24 23" fill="none" xmlns="http://www.w3.org/2000/svg">
<path d="M14.7547 7.38492C14.7466 7.21341 14.5536 5.70848 10.3075 5.70848C10.2132 5.70848 10.1167 5.7091 10.018 5.71062C8.41391 5.73639 7.35622 5.93492 6.65628 6.1875C6.65413 6.15002 6.65177 6.11068 6.64928 6.06877C6.64291 5.96659 6.63376 5.8162 6.63799 5.75573C6.65649 5.73959 6.70013 5.71445 6.73033 5.6972C6.84968 5.62869 7.07163 5.50081 7.07933 5.21777C7.08383 5.05262 6.99163 4.9147 6.91058 4.79299C6.89056 4.76321 6.8614 4.71936 6.84373 4.68936C6.86264 4.66726 6.88883 4.63976 6.90864 4.61933C7.01823 4.50524 7.18399 4.33309 7.12762 4.09626C7.09402 3.95605 6.97799 3.8394 6.84352 3.70426C6.80051 3.66103 6.73241 3.59252 6.70415 3.55553C6.70519 3.51404 6.72375 3.43001 6.7365 3.37209C6.77439 3.20016 6.81713 3.00543 6.7365 2.83329C6.67055 2.69239 6.51323 2.62242 6.29578 2.52538C6.24535 2.50301 6.17026 2.46941 6.12129 2.44385C6.11789 2.39189 6.11935 2.31362 6.12025 2.26103C6.12364 2.06098 6.12683 1.8718 6.03296 1.73262C5.91887 1.56346 5.70122 1.50111 5.50927 1.44619C5.44928 1.42894 5.36179 1.40407 5.32369 1.38579C5.30388 1.3481 5.27728 1.25812 5.26072 1.20215C5.21092 1.03382 5.15924 0.859949 5.02389 0.755072C4.88985 0.651233 4.70018 0.629759 4.48995 0.648046C4.45268 0.651233 4.41569 0.654835 4.37974 0.654835C4.34718 0.654835 4.33353 0.650124 4.33443 0.652064C4.31275 0.635023 4.27188 0.562911 4.24715 0.519476C4.17504 0.392848 4.0854 0.235384 3.90537 0.168954C3.75387 0.11319 3.5568 0.15981 3.40273 0.207469C3.35057 0.22361 3.27208 0.247923 3.25331 0.249379C3.22033 0.241482 3.12689 0.192369 3.06517 0.15981C2.91277 0.0795938 2.76875 0.0036017 2.60998 0C2.37335 0 2.25441 0.118524 2.18333 0.189395C2.14329 0.229157 2.1293 0.242389 2.09674 0.252364C2.09058 0.254303 2.01292 0.253195 1.95286 0.246822C1.76473 0.226178 1.59278 0.238301 1.46388 0.325584C1.38068 0.381764 1.3281 0.475004 1.2485 0.616043C1.21809 0.669868 1.16572 0.762484 1.13192 0.809251C1.09534 0.817148 1.03424 0.825184 0.9906 0.830934C0.818667 0.853308 0.640981 0.876653 0.526688 0.991161C0.365145 1.15333 0.388768 1.40013 0.407749 1.59847C0.411143 1.63483 0.415646 1.66871 0.416269 1.69593C0.390708 1.72807 0.336261 1.78363 0.29816 1.82215C0.156222 1.96602 0.0221889 2.102 0.00236271 2.27352C-0.018696 2.46034 0.104746 2.61441 0.224104 2.76362C0.243223 2.78745 0.267537 2.81766 0.287764 2.84467C0.276473 2.86171 0.263934 2.88 0.251189 2.8994C0.0811265 3.15432 0.00110893 3.28947 0.00132174 3.42628C0.00152956 3.65017 0.186904 3.78379 0.322052 3.88147C0.342072 3.89595 0.368257 3.91465 0.387168 3.92809C0.378856 3.97471 0.362508 4.04086 0.350593 4.08963C0.295244 4.31311 0.238025 4.5442 0.377193 4.70864C0.476599 4.82592 0.636831 4.8778 0.791929 4.92824C0.812364 4.93482 0.837441 4.94292 0.860855 4.95103C0.864041 4.99529 0.866189 5.04995 0.867643 5.09193C0.874432 5.27689 0.880597 5.43669 0.950424 5.55307C1.04685 5.71309 1.23132 5.71967 1.40964 5.72611C1.44219 5.72736 1.48729 5.72888 1.52601 5.73186C1.53412 5.79206 1.54111 5.87103 1.54603 5.92638C1.56903 6.18519 1.5858 6.37222 1.70439 6.48458C1.84356 6.61696 2.04209 6.61696 2.13789 6.61696L2.27151 6.61544C2.28128 6.61544 2.29001 6.61544 2.29811 6.61564C2.30705 6.65991 2.31619 6.71249 2.32277 6.75038C2.36302 6.98342 2.39212 7.15196 2.52879 7.24173C2.68499 7.34473 2.9165 7.2934 3.09335 7.22981C3.11781 7.22087 3.1487 7.20979 3.17634 7.20086C3.19401 7.23618 3.2134 7.27726 3.2274 7.30726C3.31378 7.49241 3.38852 7.65223 3.54508 7.71077C3.58532 7.72587 3.62806 7.73356 3.67233 7.73356C3.81704 7.73356 3.94193 7.65251 4.05222 7.58116C4.07224 7.56821 4.09773 7.55158 4.12031 7.53793C4.16007 7.56751 4.2114 7.61025 4.24673 7.63983C4.40183 7.76882 4.53574 7.88028 4.68724 7.8933C4.69472 7.89392 4.71578 7.89482 4.72319 7.89482C4.96619 7.89482 5.08964 7.69692 5.1558 7.59073C5.16155 7.58138 5.16855 7.5705 5.1754 7.55963C5.18988 7.56898 5.20436 7.57874 5.21565 7.58643C5.2401 7.60306 5.26587 7.61961 5.29247 7.63562V17.7475C5.29247 17.7709 5.29566 17.7943 5.30162 17.8168C5.32164 17.8913 5.84173 19.6372 10.0315 19.7089C10.1107 19.7101 10.1886 19.711 10.2654 19.711H10.2656C14.2548 19.711 14.7304 17.8525 14.7487 17.7734C14.7532 17.7538 14.7555 17.7337 14.7555 17.7136L14.7547 7.38492ZM10.0264 6.24263C10.1219 6.24111 10.2158 6.24048 10.3073 6.24048C13.2213 6.24048 13.9718 6.95447 14.1611 7.27132C13.6893 7.50581 12.3317 8.07384 10.2436 8.07384C7.93221 8.07384 6.43 7.5065 5.90224 7.26946C5.91589 7.25159 5.93245 7.23198 5.95073 7.21155C6.02714 7.1528 6.10078 7.08623 6.16416 7.02472C6.2042 6.99598 6.24888 6.96661 6.29868 6.93661C6.36699 6.92767 6.46424 6.89934 6.54557 6.80679C7.1267 6.5365 8.1671 6.27243 10.0263 6.24265L10.0264 6.24263Z" fill="#1C274C"/>
<path fill-rule="evenodd" clip-rule="evenodd" d="M20.6413 2.96808C20.58 3.06009 20.5182 3.17184 20.4609 3.27544L20.1589 3.82129L17.511 5.12268C17.4396 5.15774 17.3957 5.17931 17.3538 5.20084C15.8312 5.98267 14.7585 7.45177 14.4356 9.1648C14.4267 9.21202 14.4182 9.26133 14.4042 9.34274L14.4031 9.34947C14.3882 9.43645 14.3816 9.47477 14.3748 9.51175C14.1255 10.8749 13.4788 12.119 12.5278 13.0758C12.502 13.1018 12.4751 13.1283 12.4134 13.1889L11.6601 13.9296C11.1881 14.3936 10.8076 14.7678 10.5231 15.0896C10.2327 15.4182 9.99861 15.7394 9.85792 16.1088C9.48225 17.0952 9.60867 18.2131 10.1982 19.0869C10.4193 19.4146 10.7207 19.6727 11.0777 19.9239C11.4272 20.1697 11.8819 20.4436 12.4451 20.7829L13.1128 21.1851C13.6759 21.5243 14.1306 21.7982 14.5097 21.9913C14.8956 22.1877 15.2652 22.3339 15.6572 22.3708C16.7037 22.469 17.7164 22.0102 18.3541 21.1685C18.5917 20.855 18.7405 20.4834 18.867 20.0599C18.9916 19.6431 19.1116 19.1134 19.261 18.4539L19.499 17.4039C19.5184 17.318 19.527 17.2801 19.5357 17.2436C19.8564 15.8975 20.5675 14.6933 21.5669 13.7932C21.594 13.7687 21.6223 13.7438 21.6871 13.6868L21.6922 13.6823C21.7527 13.6291 21.7896 13.5965 21.8247 13.5646C23.0963 12.4061 23.7684 10.7044 23.6578 8.96306C23.6547 8.91507 23.6506 8.86516 23.6441 8.78276L23.399 5.72329L23.7315 5.12223C23.7851 5.02554 23.8435 4.92017 23.8867 4.82464C23.9359 4.71607 23.9908 4.56813 23.9989 4.38759C24.0098 4.14652 23.9459 3.90797 23.816 3.7046C23.7187 3.55229 23.5973 3.45156 23.5004 3.38208C23.4153 3.32094 23.3121 3.25881 23.2174 3.2018L22.4538 2.74183C22.3524 2.68072 22.2431 2.61481 22.144 2.56577C22.0323 2.51049 21.8776 2.44714 21.6869 2.43569C21.4342 2.42054 21.1835 2.48768 20.9723 2.62704C20.8128 2.73223 20.7105 2.86438 20.6413 2.96808ZM20.6324 5.1537L22.0107 5.98395L22.2433 8.88797C22.2481 8.94785 22.2511 8.9847 22.2532 9.01288L21.265 9.34223C20.6761 9.53854 20.0278 9.42292 19.543 9.03511C18.5577 8.24689 17.2041 8.10348 16.0756 8.66776L16.0197 8.6957C16.3865 7.71847 17.0896 6.91553 17.9955 6.45041C18.0251 6.4352 18.0573 6.41934 18.137 6.38016L20.6324 5.1537Z" fill="#1C274C"/>
<path d="M14.9999 9C14.5877 10.6833 14.2662 11.4621 13.4999 12.5C12.1126 13.7145 11.3093 14.205 9.9999 16C9.56997 16.8434 9.3707 17.7701 9.5 18C9.43663 18.7028 10.0279 19.0396 10.4999 19.5" stroke="white" stroke-width="0.1"/>
</svg>
