<svg width="40" height="40" viewBox="0 0 24 24" fill="none" xmlns="http://www.w3.org/2000/svg">
<path d="M21.8 8.6284C21.8 8.4312 21.6436 8.2408 21.3556 8.0612V2.5248C21.6436 2.3452 21.8 2.1548 21.8 1.958C21.8 0.876 17.1444 0 11.4 0C5.6564 0 1 0.876 1 1.958C1 2.1552 1.1564 2.3452 1.4444 2.5248V8.0616C1.1564 8.2412 1 8.4312 1 8.6284C1 8.8256 1.1564 9.016 1.4444 9.1952V14.8044C1.1564 14.984 1 15.1744 1 15.3716C1 15.5688 1.1564 15.7592 1.4444 15.9384V21.4752C1.1564 21.6548 1 21.8448 1 22.042C1 23.1232 5.6564 24 11.4 24C17.1444 24 21.8 23.1232 21.8 22.042C21.8 21.8448 21.6436 21.6544 21.3556 21.4748V15.9388C21.6436 15.7588 21.8 15.5688 21.8 15.3716C21.8 15.1744 21.6436 14.984 21.3556 14.8044V9.1956C21.6436 9.016 21.8 8.8256 21.8 8.6284ZM11.4 0.8C16.5364 0.8 19.7256 1.4768 20.7428 1.9576C19.7252 2.4384 16.5368 3.1156 11.4 3.1156C6.264 3.1156 3.0748 2.4384 2.0568 1.9576C3.0748 1.4768 6.2636 0.8 11.4 0.8ZM11.4 23.1292C6.842 23.1292 2.97 22.2152 1.5648 21.4468C4.0556 21.814 7.5408 22.4044 11.4 22.4044C15.2592 22.4044 18.7444 21.814 21.2348 21.4468C19.8304 22.2152 15.958 23.1292 11.4 23.1292ZM11.4 16.6044C6.842 16.6044 2.97 15.6896 1.5648 14.9216C4.0556 15.2888 7.5408 15.8796 11.4 15.8796C15.2592 15.8796 18.7444 15.2888 21.2348 14.9216C19.8304 15.6896 15.958 16.6044 11.4 16.6044ZM11.4 9.8608C6.842 9.8608 2.97 8.9464 1.5648 8.1784C4.0556 8.5448 7.5408 9.136 11.4 9.136C15.2592 9.136 18.7444 8.5448 21.2348 8.1784C19.8304 8.9464 15.958 9.8608 11.4 9.8608Z" fill="#1C274C"/>
<path d="M6.45762 2.73425C7.26265 2.73425 7.91525 2.56988 7.91525 2.36713C7.91525 2.16437 7.26265 2 6.45762 2C5.6526 2 5 2.16437 5 2.36713C5 2.56988 5.6526 2.73425 6.45762 2.73425Z" fill="#1C274C"/>
</svg>
