<svg width="24" height="23" viewBox="0 0 24 23" fill="none" xmlns="http://www.w3.org/2000/svg">
<path d="M4.87121 8.88551L13.388 14.8024L22.5991 8.40267L23.999 7.43126L13.388 0.0629883L10.7738 1.87718C10.6759 1.94516 10.5461 1.94516 10.4481 1.87718L7.83397 0.0629883L0 5.50562L3.48272 7.92267L4.87121 8.88551ZM12.1623 12.4796L11.8366 12.0225L17.3907 8.16271L17.7135 8.63126L12.1623 12.4796ZM18.7621 5.13423L18.9249 5.36851L10.4253 11.2854L10.0996 10.8169L18.5992 4.91138L18.7621 5.13423ZM17.0279 3.94L17.1907 4.17427L8.69105 10.0797L8.36534 9.62264L16.8564 3.70574L17.0279 3.94ZM15.2908 2.73431L15.4536 2.96858L6.95395 8.87405L6.7911 8.63978L6.62826 8.40263L15.1422 2.50001L15.2908 2.73431ZM13.3908 1.30579L13.7137 1.7629L5.21691 7.66837L4.89121 7.19694L13.3908 1.30579Z" fill="#1C274C"/>
<path d="M13.2252 15.3852L1.23424 7.05127L0 7.90838L1.39709 8.87979L13.3966 17.2109L22.5991 10.8169L23.999 9.84544L22.7619 8.98833L13.5509 15.3852C13.4529 15.4532 13.3231 15.4532 13.2252 15.3852Z" fill="#1C274C"/>
<path d="M23.999 12.2596L22.7619 11.4025L13.5509 17.7994C13.4529 17.8672 13.3231 17.8672 13.2252 17.7994L1.22566 9.46826L0 10.3282L13.388 19.6222L23.999 12.2596Z" fill="#1C274C"/>
<path d="M22.7658 13.8137L13.5519 20.2106C13.4539 20.2785 13.3241 20.2785 13.2262 20.2106L1.22664 11.8823L0.000976562 12.7366L13.389 22.0391L24 14.668L22.7658 13.8137Z" fill="#1C274C"/>
<path d="M10.611 1.29421L12.4766 0H8.74536L10.611 1.29421Z" fill="#1C274C"/>
</svg>
