<svg width="24" height="23" viewBox="0 0 24 23" fill="none" xmlns="http://www.w3.org/2000/svg">
<path fill-rule="evenodd" clip-rule="evenodd" d="M0.497735 8.21673L1.40384 7.85809C1.41813 7.84212 1.43206 7.82612 1.44582 7.81019L7.06397 22.0044L6.10519 22.3839L0.497735 8.21673ZM1.72977 7.4405C2.19466 6.76984 2.45188 6.11227 3.55918 5.67399C4.19516 5.42227 4.76586 5.43962 5.24875 5.52703L10.9095 19.8287C10.4754 19.7287 9.95346 19.6818 9.21868 19.9726C8.11144 20.4109 7.85406 21.0685 7.38928 21.7391L1.72977 7.4405ZM5.72205 5.63573C6.13642 5.74658 6.45686 5.85806 6.66142 5.7771C6.83445 5.70861 7.00477 5.40396 7.2499 5.03288L12.921 19.3609C12.7378 19.6177 12.548 19.8337 12.2569 19.949C11.9532 20.0692 11.6825 20.0288 11.3894 19.9543L5.72205 5.63573ZM7.52557 4.64225C7.83967 4.23255 8.26142 3.81272 8.87602 3.56946C9.49 3.32644 10.0398 3.3336 10.5095 3.41254L16.1691 17.7114C15.7436 17.6218 15.2306 17.593 14.5355 17.8681C13.8337 18.1459 13.4749 18.5669 13.1944 18.9645L7.52557 4.64225ZM10.9808 3.51628C11.4225 3.63199 11.7645 3.75723 11.9864 3.66943C12.1441 3.60698 12.3055 3.32632 12.534 2.9773L18.2116 17.3216C18.0614 17.5377 17.8749 17.7252 17.5447 17.8559C17.2426 17.9755 16.963 17.918 16.6478 17.8336L10.9809 3.51624L10.9808 3.51628ZM12.8081 2.5831C13.1271 2.15887 13.5589 1.71595 14.1928 1.46502C15.5416 0.931168 15.9441 1.43676 17.0211 1.5676L22.6658 15.8288L22.5986 15.8554C21.5821 15.7101 21.1663 15.2435 19.8522 15.7636C19.0194 16.0933 18.7076 16.5092 18.473 16.8957L12.8081 2.5831ZM17.4303 1.5147L18.3502 1.1506L23.9576 15.3176L23.0377 15.6817L17.4303 1.5147Z" fill="#1C274C"/>
</svg>
