<svg width="24" height="22" viewBox="0 0 24 22" fill="none" xmlns="http://www.w3.org/2000/svg">
<path d="M0.376126 7.45305H3.74571V10.6667L6.07057 9.2309L8.01924 10.4275L9.96791 9.2309L11.8825 10.3932L13.8312 9.19662L15.7799 10.3932L17.7285 9.19662L20.0534 10.6325V7.45297H23.5492C23.7543 7.45297 23.9253 7.28203 23.9253 7.07693C23.9253 6.87182 23.7543 6.70088 23.5492 6.70088H19.985V0H3.77982V6.6667H0.376041C0.170934 6.6667 -4.4831e-07 6.83764 -4.4831e-07 7.04274C-4.4831e-07 7.24796 0.17094 7.45305 0.376041 7.45305H0.376126Z" fill="#1C274C"/>
<path d="M23.6243 11.5215H0.429508C0.224401 11.5215 0.0534659 11.6924 0.0534659 11.8975C0.0534659 12.1026 0.224407 12.2736 0.429508 12.2736L3.98508 12.2736C4.01925 12.3762 4.08769 12.4787 4.12186 12.5813C4.4979 13.2992 4.77146 13.8462 4.53206 14.5643C4.42945 14.8036 4.32696 15.043 4.22434 15.2481C4.0534 15.5899 3.88246 15.9318 3.77983 16.4105C3.36963 18.1199 3.33533 19.4532 3.74567 21.1627C3.77984 21.3336 3.95078 21.4704 4.12171 21.4704L6.75424 21.4703C6.85685 21.4703 6.99351 21.4019 7.06196 21.3335C7.13029 21.2309 7.16457 21.1284 7.13029 21.0258C6.75425 19.419 6.78841 18.2224 7.16446 16.6155C7.26707 16.2394 7.40373 15.9317 7.5405 15.624C7.64311 15.3847 7.77977 15.1453 7.88238 14.8719C8.25842 13.8804 7.88238 13.0942 7.47218 12.342H8.25857C8.29273 12.4446 8.36118 12.5471 8.39534 12.6497C8.77138 13.3676 9.04495 13.9146 8.80554 14.6327C8.70293 14.8719 8.60044 15.1113 8.49782 15.3164C8.32688 15.6583 8.15594 16.0002 8.05332 16.4788C7.64312 18.1883 7.60881 19.5216 8.01915 21.231C8.05332 21.4019 8.22426 21.5387 8.39519 21.5387H11.0277C11.1303 21.5387 11.2669 21.4704 11.3354 21.402C11.4037 21.2993 11.438 21.1968 11.4037 21.0942C11.0277 19.4874 11.0618 18.2908 11.4379 16.6839C11.5405 16.3079 11.6772 16.0002 11.8139 15.6925C11.9165 15.4532 12.0532 15.2138 12.1558 14.9404C12.5318 13.9489 12.1558 13.1627 11.7456 12.4104H12.532C12.5662 12.513 12.6346 12.6155 12.6688 12.7181C13.0448 13.4361 13.3184 13.9831 13.079 14.7011C12.9764 14.9404 12.8739 15.1798 12.7712 15.3849C12.6003 15.7268 12.4294 16.0686 12.3267 16.5473C11.9165 18.2567 11.8822 19.5901 12.2926 21.2995C12.3267 21.4704 12.4977 21.6072 12.6686 21.6072L15.3013 21.6071C15.4039 21.6071 15.5406 21.5388 15.609 21.4703C15.6773 21.3677 15.7116 21.2652 15.6773 21.1626C15.3013 19.5558 15.3355 18.3592 15.7115 16.7523C15.8141 16.3763 15.9508 16.0685 16.0875 15.7608C16.1901 15.5215 16.3268 15.2822 16.4294 15.0087C16.8055 14.0173 16.4294 13.231 16.0192 12.4788H16.8056C16.8398 12.5814 16.9082 12.6839 16.9424 12.7865C17.3184 13.5044 17.592 14.0514 17.3526 14.7695C17.25 15.0087 17.1475 15.2481 17.0449 15.4532C16.8739 15.7951 16.703 16.137 16.6004 16.6157C16.1902 18.3251 16.1559 19.6584 16.5662 21.3678C16.6004 21.5388 16.7713 21.6756 16.9422 21.6756H19.5747C19.6773 21.6756 19.8139 21.6072 19.8824 21.5388C19.9507 21.4362 19.985 21.3337 19.9507 21.2311C19.5747 19.6243 19.6088 18.4277 19.9849 16.8208C20.0875 16.4447 20.2242 16.137 20.3609 15.8293C20.4635 15.59 20.6002 15.3506 20.7028 15.0772C21.0789 14.0857 20.7028 13.2995 20.2926 12.5472L23.624 12.5472C23.8291 12.5472 24 12.3763 24 12.1712C24 11.6925 23.8291 11.5216 23.624 11.5216L23.6243 11.5215Z" fill="#1C274C"/>
</svg>
