<svg width="19" height="24" viewBox="0 0 19 24" fill="none" xmlns="http://www.w3.org/2000/svg">
<mask id="mask0_1318_11075" style="mask-type:luminance" maskUnits="userSpaceOnUse" x="0" y="0" width="19" height="24">
<path d="M0 0H18.7373V24H0V0Z" fill="white"/>
</mask>
<g mask="url(#mask0_1318_11075)">
<path d="M12.0665 21.0832L12.8405 19.8612L13.3193 18.3224C13.7982 16.7836 13.7679 16.9712 13.7679 16.9712C14.2974 15.9319 14.4194 15.6724 14.5927 15.3149C14.8624 14.6133 14.8188 14.752 15.4888 12.9776C17.1608 9.31652 18.0909 6.91115 18.7208 2.59045C18.7208 2.59045 18.5194 2.28874 17.6706 0.632106C16.8218 -1.0244 16.8643 1.09857 16.8643 1.09857L15.3101 2.38713L13.5105 6.27179L12.3165 6.04093L10.6569 6.31224C10.6569 6.31224 10.1656 5.54048 9.1719 5.97681C8.17822 6.41313 7.91088 6.63925 7.91088 6.63925L6.79127 6.30493C5.67154 5.97061 6.79127 6.30493 6.2081 6.46075C5.62505 6.61656 5.89895 5.87223 5.89895 5.87223L5.52643 5.08114C5.15365 4.29004 4.59042 2.89106 4.59042 2.89106L3.96916 1.13642C3.41463 0.994624 3.01407 0.513671 2.24714 0.839675L1.55405 1.43984L1.66036 2.09187L1.16452 2.7815L0.846305 3.44198L0.0161133 5.25121L0.488008 7.21291L0.352788 9.36504L0.767741 13.9528C0.834608 16.43 0.789451 19.063 0.976155 21.3738L1.53278 23.2912L2.59198 24.0005C2.97953 23.9208 3.54101 23.5073 4.29937 22.7174C4.79 22.0816 5.1165 22.1086 5.46661 22.0398C6.3943 22.0711 6.96791 22.3581 8.41406 22.0145L10.9865 21.9289L11.0469 21.5538L12.0665 21.0832ZM17.1859 2.994L16.7362 3.33638C15.8444 4.24521 15.3502 5.16807 14.7219 6.0862C14.4508 6.28184 14.3616 6.26248 14.4269 6.05928C15.3798 4.79228 16.1012 3.6232 16.6754 2.70116C16.8305 2.39959 16.9831 2.13037 17.119 2.05844C17.2955 1.99604 17.4985 1.88352 17.4448 2.27418C17.4643 2.36784 17.4005 2.57613 17.1859 2.9942L17.1859 2.994ZM3.47842 4.29621C3.45683 4.32425 3.42619 4.35402 3.38525 4.38826C2.96509 3.76462 3.02711 3.13343 2.84796 2.61501C2.73966 2.45125 2.53286 2.28428 2.55259 2.12536C2.58 1.90218 2.62094 1.71523 2.60047 1.36453C2.73098 1.38785 2.87166 1.38611 2.94375 1.55594C3.34136 2.72741 3.31094 3.18851 3.49456 4.00479C3.49915 4.09932 3.57048 4.17474 3.47719 4.29607L3.47842 4.29621Z" fill="#1C274C"/>
</g>
</svg>
