<svg width="40" height="40" viewBox="0 0 20 24" fill="none" xmlns="http://www.w3.org/2000/svg">
<g clip-path="url(#clip0_930_12885)">
<path d="M9.24441 0.286989C9.16251 0.100579 8.96197 -0.00674829 8.76427 0.0299689C8.28412 0.123174 7.73901 0.114701 7.14589 0.00737372C6.89452 -0.0378166 6.76177 0.137296 6.72788 0.19096C6.69398 0.244623 6.59513 0.433858 6.742 0.63439C7.63168 1.8743 9.00717 3.03795 9.35457 3.32604H9.73868H11.7497C12.0519 3.04643 13.0856 2.05506 13.6618 1.06935C13.7522 0.914005 13.7437 0.733244 13.6392 0.586375C13.5347 0.436682 13.3652 0.366072 13.1844 0.399965C12.7693 0.476224 12.3474 0.946706 12 0.822432C11.7497 0.19096 10.4307 0.28134 9.95334 0.408438C10.1313 0.9366 9.45188 0.517397 9.28806 0.822432C9.20898 0.972125 10.1733 0.901515 10.0236 0.822432C9.87389 0.743349 9.9445 0.972125 10.0236 0.822432C10.1196 0.630373 9.45907 0.77561 9.24441 0.286989Z" fill="#1C274C"/>
<path d="M12.1675 4.21C12.5827 4.83984 13.1956 5.81991 13.8057 7.00898C14.4299 8.2263 14.9213 9.40689 15.2687 10.5169C15.7065 11.9178 15.9127 13.217 15.8844 14.375C15.8788 14.5416 15.7432 14.6744 15.5766 14.6744H15.5681C15.3986 14.6687 15.2631 14.5275 15.2687 14.3581C15.3308 11.8782 14.2124 9.14987 13.2634 7.29707C12.3991 5.61373 11.5151 4.32863 11.2355 3.93604H10.7892C10.8514 5.01496 11.0095 8.45507 10.6706 10.483C10.6452 10.6327 10.5153 10.74 10.3684 10.74C10.3514 10.74 10.3345 10.74 10.3176 10.7372C10.1509 10.7089 10.0351 10.5508 10.0634 10.3841C10.391 8.42118 10.2272 4.95282 10.1707 3.93604H9.86847C9.60016 4.22412 8.74719 5.19007 7.94507 6.59097C7.06668 8.13027 6.06968 10.5282 6.31822 13.2142C6.33517 13.3836 6.2109 13.5333 6.04143 13.5503C6.03296 13.5503 6.02166 13.5503 6.01319 13.5503C5.85502 13.5503 5.72228 13.4317 5.70816 13.2707C5.58953 12.0082 5.71945 10.7033 6.08945 9.38995C6.38318 8.34492 6.83226 7.29424 7.42256 6.26616C7.89705 5.43861 8.38285 4.76358 8.76696 4.27779C7.90835 4.84549 4.88679 8.85331 3.50001 10.74C0.608121 14.6744 0.528859 16.3514 2.00004 21.5C2.49713 23.237 4.95687 23.6616 6.756 23.8339C8.64269 24.0147 11.4756 24.139 14.2406 23.704C16.1725 23.4018 17.7647 23.4127 18.5002 21.5C20.1816 17.1275 18.2315 8.5398 12.1675 4.21Z" fill="#1C274C"/>
<path d="M3.40405 14.0616L16.6434 14.7971L13.7013 7.44189L10.7593 8.17741L7.08165 7.44189L3.40405 14.0616Z" fill="#1C274C" stroke="#1C274C"/>
</g>
<defs>
<clipPath id="clip0_930_12885">
<rect width="19.2" height="24" fill="white"/>
</clipPath>
</defs>
</svg>
