<svg width="24" height="20" viewBox="0 0 24 20" fill="none" xmlns="http://www.w3.org/2000/svg">
<path d="M4 10L0.5 13L0 19H15L23.5 12V5.5H20V0H13L4 7V10Z" fill="#1C274C"/>
<path d="M23.9996 8.02197V5.8344V5.81555C24.0001 5.80787 24.0001 5.80019 23.9996 5.79251C23.9996 5.73693 23.9775 5.68369 23.9383 5.64443C23.899 5.60516 23.8458 5.58308 23.7902 5.58308H20.3051V0.209437C20.3051 0.153848 20.2831 0.100617 20.2438 0.0613475C20.2045 0.0220784 20.1513 0 20.0957 0C20.073 0.00418873 20.0498 0.00418873 20.0271 0H12.7072C12.6612 0 12.6166 0.0150093 12.58 0.0429348L3.75752 6.81662L3.74809 6.82447L3.74129 6.83076L3.73448 6.83809L3.72715 6.84594C3.72523 6.84812 3.72348 6.85039 3.72191 6.85275L3.71458 6.86217L3.70987 6.8695C3.70812 6.87273 3.70621 6.87587 3.70411 6.87893C3.70411 6.88207 3.70411 6.88521 3.69992 6.88783L3.69521 6.89725L3.69154 6.9072L3.6884 6.91558L3.68526 6.9271V6.93547C3.685 6.93896 3.685 6.94245 3.68526 6.94595V6.95589V6.96532C3.685 6.96916 3.685 6.973 3.68526 6.97684V6.9805V10.0174L0.072452 12.7925L0.0630272 12.8003L0.0562205 12.8066L0.0494136 12.8139L0.0420835 12.8218L0.0368474 12.8291C0.0342294 12.8317 0.0321351 12.8349 0.0295173 12.838C0.0268995 12.8411 0.0268993 12.8432 0.0253286 12.8453L0.0190455 12.8553L0.0148567 12.8637C0.013286 12.8667 0.0118024 12.8699 0.010668 12.8731C0.00892271 12.8764 0.00752657 12.88 0.00647928 12.8836L0.00333782 12.8919L0.000196351 12.9029V12.9113C-6.54503e-05 12.915 -6.54503e-05 12.9186 0.000196351 12.9223V12.9317V12.9417C-6.54503e-05 12.9453 -6.54503e-05 12.949 0.000196351 12.9527V12.9563V18.932C0.000196351 18.9876 0.0222745 19.0409 0.061544 19.0801C0.100813 19.1194 0.154045 19.1415 0.209633 19.1415H15.0143L15.0263 19.1383H15.0331L15.0447 19.1341L15.0509 19.1315L15.063 19.1258H15.0687L15.0803 19.1184L15.085 19.1153C15.0904 19.1121 15.0954 19.1084 15.1002 19.1043L23.9226 11.8856C23.9712 11.8459 23.9995 11.7866 23.9996 11.7238L23.9996 8.02197ZM14.7594 13.1662V18.723H9.77155C11.0282 18.0591 13.1634 16.4716 13.8184 13.1662H14.7594ZM14.996 12.7505C14.9868 12.7499 14.9775 12.7499 14.9683 12.7505H11.7424L20.1722 6.00336H23.2613L14.996 12.7505ZM3.37706 18.723C2.96134 16.5344 0.930393 15.3747 0.399373 15.1066V13.1662H2.06964C2.47437 13.5495 4.88402 15.9413 5.07927 18.7231L3.37706 18.723ZM2.66549 13.1662H7.3705V18.723H5.49814C5.33426 16.1774 3.47866 14.0033 2.66544 13.1662H2.66549ZM4.09386 7.19139H5.30283C5.44629 8.00819 6.20237 11.308 9.20315 12.7482H4.09401L4.09386 7.19139ZM11.065 7.19139V9.79734C9.06543 9.69262 8.15481 7.88938 7.87578 7.19139H11.065ZM19.8875 2.13565L16.8805 4.62119C16.8017 4.69711 16.7947 4.82102 16.8644 4.90542C16.9341 4.9898 17.0571 5.0063 17.1465 4.9432L19.8876 2.67771V5.6936L11.4829 12.4213V10.9259C11.4866 10.9233 11.4913 10.9212 11.495 10.918L15.813 7.60792C15.8954 7.53496 15.9073 7.41079 15.8404 7.32353C15.7733 7.23635 15.6503 7.21576 15.5586 7.27649L11.4829 10.4014V7.03321L19.8876 0.581001L19.8875 2.13565ZM7.43122 7.19251C7.66002 7.80512 8.67684 10.1032 11.065 10.2162V12.7493H10.3906C6.80932 11.7545 5.905 8.14642 5.72695 7.19251H7.43122ZM7.7883 13.1673H11.0119C10.424 15.492 8.46989 16.111 7.7883 16.2565V13.1673ZM12.7786 0.418381H14.1085L10.8815 3.07191C10.8339 3.10551 10.8024 3.15735 10.7947 3.21512C10.787 3.2728 10.8036 3.33118 10.8406 3.37612C10.8776 3.42106 10.9317 3.44864 10.9898 3.45204C11.0479 3.45553 11.1048 3.43468 11.147 3.39445L14.7656 0.418325H19.413L11.1345 6.77358H9.2113L10.8831 5.35151C10.9306 5.31739 10.9616 5.26494 10.9687 5.20691C10.9758 5.14888 10.9583 5.09059 10.9205 5.046C10.8827 5.0014 10.8279 4.9747 10.7695 4.97226C10.7111 4.96981 10.6543 4.99189 10.613 5.03317L8.56676 6.77358H4.5L12.7786 0.418381ZM3.67597 12.7484H0.805736L3.67597 10.5447V12.7484ZM0.399373 15.5832C1.0502 15.9539 2.58118 16.9932 2.95081 18.7246H0.399373V15.5832ZM7.7883 16.6827C8.46897 16.5424 10.8142 15.8664 11.442 13.1684H13.3918C12.5106 17.4132 9.06438 18.6189 8.73196 18.7252H7.78948L7.7883 16.6827ZM15.1772 18.4938V16.6089L19.124 13.5825C19.1724 13.5504 19.2053 13.4997 19.2149 13.4423C19.2245 13.3851 19.2099 13.3264 19.1745 13.2803C19.1391 13.2343 19.0862 13.205 19.0284 13.1994C18.9706 13.1938 18.913 13.2126 18.8695 13.251L15.1772 16.0826V13.1423L23.5819 6.27474V7.92406C22.3363 8.95343 20.0942 10.8039 19.9734 10.9017C19.9012 10.9554 19.8713 11.0492 19.8992 11.1347C19.927 11.2203 20.0064 11.2785 20.0964 11.2793C20.1199 11.2793 20.1433 11.2754 20.1655 11.2677C20.21 11.252 20.2116 11.2515 23.582 8.46609V11.6245L15.1772 18.4938Z" fill="white"/>
</svg>
