<svg width="24" height="24" viewBox="0 0 24 24" fill="none" xmlns="http://www.w3.org/2000/svg">
<path d="M3.9099 22.6969C3.9099 22.3512 3.7726 22.0197 3.52812 21.7753C3.28374 21.5309 2.95222 21.3936 2.60656 21.3936C2.26091 21.3936 1.92936 21.5309 1.685 21.7753C1.44053 22.0197 1.30322 22.3512 1.30322 22.6969C1.30322 23.0426 1.44053 23.3741 1.685 23.6185C1.92938 23.8629 2.26091 24.0002 2.60656 24.0002C2.95213 23.9999 3.2834 23.8624 3.52778 23.6181C3.77206 23.3737 3.90956 23.0425 3.9099 22.6969ZM2.60656 23.1313C2.49134 23.1313 2.38083 23.0855 2.29937 23.0041C2.21791 22.9226 2.17211 22.8121 2.17211 22.6969C2.17211 22.5817 2.21791 22.4712 2.29937 22.3897C2.38083 22.3082 2.49134 22.2624 2.60656 22.2624C2.72179 22.2624 2.83229 22.3082 2.91376 22.3897C2.99522 22.4712 3.04101 22.5817 3.04101 22.6969C3.04101 22.8121 2.99522 22.9226 2.91376 23.0041C2.8323 23.0855 2.72179 23.1313 2.60656 23.1313Z" fill="#1C274C"/>
<path d="M4.77897 22.6968C4.77942 23.1671 4.62646 23.6247 4.34334 24.0001H7.82007V14.8767L6.41249 14.6844C6.29727 14.6844 5.8249 14.2098 5.74344 14.1283L4.9093 13.8242H1.30347V17.3386L2.51992 18.9605C2.57631 19.0357 2.60681 19.1272 2.60681 19.2212V20.5245C3.18271 20.5252 3.73484 20.7543 4.14213 21.1615C4.54933 21.5687 4.77841 22.1209 4.77904 22.6968L4.77897 22.6968Z" fill="#1C274C"/>
<path d="M0.434418 14.0066H5.21333C5.32855 14.0066 5.43906 14.0524 5.52053 14.1338L6.26217 14.8755H7.82001V13.1377H0.434418C0.279195 13.1377 0.13582 13.2205 0.0581759 13.3549C-0.019392 13.4893 -0.019392 13.655 0.0581759 13.7894C0.135834 13.9238 0.279202 14.0066 0.434418 14.0066Z" fill="#1C274C"/>
<path d="M2.50513 13.1372H6.08219V12.6075L3.24797 11.8989L2.50513 13.1372Z" fill="#1C274C"/>
<path d="M13.2766 0H14.1455V1.30334H13.2766V0Z" fill="#1C274C"/>
<path d="M9.54053 0.801781L10.3433 0.469238L10.8421 1.67339L10.0393 2.00593L9.54053 0.801781Z" fill="#1C274C"/>
<path d="M6.79468 2.68235L7.40916 2.06787L8.33072 2.98943L7.71624 3.60391L6.79468 2.68235Z" fill="#1C274C"/>
<path d="M4.97192 5.63868L5.30447 4.83594L6.50861 5.33473L6.17607 6.13747L4.97192 5.63868Z" fill="#1C274C"/>
<path d="M4.34448 8.79297H5.64782V9.66186H4.34448V8.79297Z" fill="#1C274C"/>
<path d="M19.3936 14.7253L20.008 14.1108L20.9296 15.0324L20.3151 15.6469L19.3936 14.7253Z" fill="#1C274C"/>
<path d="M21.0098 12.4287L21.3423 11.626L22.5465 12.1248L22.2139 12.9275L21.0098 12.4287Z" fill="#1C274C"/>
<path d="M21.7744 8.79297H23.0778V9.66186H21.7744V8.79297Z" fill="#1C274C"/>
<path d="M21.0098 5.79908L22.2139 5.30029L22.5465 6.10304L21.3423 6.60183L21.0098 5.79908Z" fill="#1C274C"/>
<path d="M19.4805 3.51092L20.402 2.58936L21.0165 3.20384L20.095 4.1254L19.4805 3.51092Z" fill="#1C274C"/>
<path d="M16.7787 1.66284L17.4322 0.535109L18.184 0.97075L17.5305 2.09848L16.7787 1.66284Z" fill="#1C274C"/>
<path d="M11.7649 20.784L15.6054 19.3428V18.5249L11.7649 19.9661V20.784Z" fill="#1C274C"/>
<path d="M15.362 21.5312H12.0081L12.3907 22.4001H14.9793L15.362 21.5312Z" fill="#1C274C"/>
<path d="M15.6053 20.2627L13.7458 20.9578H15.6053V20.2627Z" fill="#1C274C"/>
<path d="M11.7649 19.0462L13.6243 18.3511H11.7649V19.0462Z" fill="#1C274C"/>
<path d="M17.4258 14.7034C18.29 14.103 18.9961 13.3025 19.4841 12.3703C19.9719 11.438 20.2271 10.4014 20.2277 9.34908C20.2277 5.75582 17.3044 2.83252 13.7112 2.83252C12.1533 2.83188 10.6468 3.38962 9.46473 4.40457C8.28266 5.41952 7.50378 6.82454 7.26883 8.36459C7.03389 9.90465 7.35883 11.478 8.1845 12.7991H10.6443C11.3557 12.7983 12.0378 12.5154 12.5409 12.0124C13.0439 11.5093 13.3268 10.8272 13.3276 10.1158V8.35797L12.4487 9.2369L11.9065 8.69473L13.4398 7.16142L13.4399 7.1615C13.5118 7.08962 13.6093 7.04921 13.711 7.04921C13.8126 7.04921 13.9101 7.08962 13.982 7.1615L15.5153 8.69481L14.9731 9.23698L14.0943 8.35797V10.1158C14.0932 11.0305 13.7295 11.9074 13.0827 12.5542C12.4359 13.201 11.559 13.5648 10.6443 13.5658H8.74447C9.104 13.9899 9.51623 14.3664 9.97119 14.686C10.4785 15.0406 10.9026 15.501 11.2144 16.0357C11.5261 16.5703 11.718 17.1663 11.7767 17.7824H15.6449C15.6988 17.1703 15.8862 16.5774 16.1938 16.0454C16.5014 15.5136 16.9219 15.0555 17.4256 14.7036L17.4258 14.7034Z" fill="#1C274C"/>
</svg>
