<svg width="12" height="16" viewBox="0 0 12 16" fill="none" xmlns="http://www.w3.org/2000/svg">
<path d="M5.42137 15.9818C5.24148 15.9281 5.1468 15.758 4.93443 15.1069C4.62982 14.1729 4.46267 13.8205 3.95024 13.0316C3.58873 12.475 3.12776 11.8541 2.44221 11.0004C0.875021 9.04861 0.375012 8.16672 0.123079 6.91C-0.086741 5.86336 -0.0264921 4.73906 0.290046 3.79426C0.73483 2.46667 1.6981 1.3334 2.96874 0.642833C3.99117 0.0871628 5.34005 -0.128289 6.52109 0.0754298C8.69761 0.45086 10.4625 2.09722 11.0049 4.25807C11.1178 4.70801 11.1554 5.04893 11.1537 5.60653C11.1505 6.68498 10.9627 7.51578 10.5173 8.42292C10.1463 9.17857 9.83156 9.63836 8.74133 11.0174C7.13414 13.0504 6.72628 13.7207 6.26172 15.0925C6.06981 15.6592 5.9595 15.8764 5.82778 15.9469C5.7287 15.9999 5.53704 16.0164 5.42137 15.9818ZM6.12342 7.63298C6.86207 7.42937 7.4544 6.83024 7.64527 6.09365C7.72284 5.79429 7.71503 5.31009 7.62761 4.99853C7.42753 4.28547 6.8637 3.71746 6.14557 3.50549C5.82608 3.41119 5.25512 3.4171 4.95074 3.51787C4.20267 3.76551 3.64088 4.40031 3.47933 5.18051C3.27112 6.18601 3.88652 7.23849 4.88807 7.58981C5.26739 7.72287 5.73772 7.7393 6.12342 7.63298Z" fill="black"/>
</svg>
