<svg width="40" height="40" viewBox="0 0 24 24" fill="none" xmlns="http://www.w3.org/2000/svg">
<path fill-rule="evenodd" clip-rule="evenodd" d="M16.2284 0.642978C16.1547 0.753672 16.0803 0.888102 16.0114 1.01273L15.648 1.66938L12.4626 3.23494C12.3768 3.27712 12.324 3.30306 12.2736 3.32896C10.4419 4.26949 9.15146 6.0368 8.76297 8.09755C8.75226 8.15436 8.74208 8.21368 8.72529 8.31162L8.7239 8.31972C8.70596 8.42435 8.69804 8.47045 8.6899 8.51494C8.39002 10.1548 7.61196 11.6514 6.4679 12.8025C6.4369 12.8337 6.4045 12.8656 6.33028 12.9385L5.4241 13.8296C4.85629 14.3878 4.39856 14.8379 4.05634 15.225C3.70701 15.6203 3.42536 16.0067 3.25611 16.4511C2.80419 17.6377 2.95627 18.9826 3.66543 20.0338C3.93142 20.428 4.29408 20.7384 4.7235 21.0406C5.14396 21.3363 5.69091 21.6658 6.3685 22.0739L7.17175 22.5578C7.84907 22.9658 8.39611 23.2953 8.85214 23.5276C9.31634 23.764 9.76095 23.9398 10.2326 23.9842C11.4916 24.1024 12.7098 23.5504 13.477 22.5379C13.7628 22.1607 13.9418 21.7137 14.094 21.2043C14.2438 20.7028 14.3882 20.0655 14.5679 19.2722L14.8542 18.0092C14.8776 17.9057 14.8879 17.8602 14.8983 17.8163C15.2842 16.1969 16.1397 14.7483 17.3419 13.6654C17.3745 13.636 17.4085 13.6061 17.4864 13.5375L17.4926 13.532C17.5654 13.4681 17.6098 13.4289 17.6521 13.3904C19.1817 11.9968 19.9903 9.94963 19.8571 7.85486C19.8534 7.79714 19.8486 7.73709 19.8407 7.63797L19.5459 3.95746L19.9459 3.2344C20.0104 3.11807 20.0805 2.99133 20.1326 2.8764C20.1917 2.7458 20.2577 2.56782 20.2675 2.35064C20.2806 2.06063 20.2038 1.77366 20.0475 1.529C19.9305 1.34578 19.7844 1.2246 19.6679 1.14102C19.5655 1.06747 19.4413 0.992725 19.3274 0.924141L18.4089 0.370805C18.2869 0.297287 18.1553 0.218001 18.0361 0.159004C17.9017 0.0925038 17.7157 0.0162931 17.4862 0.00252677C17.1823 -0.0157007 16.8807 0.0650611 16.6266 0.232713C16.4347 0.359258 16.3116 0.518225 16.2284 0.642978ZM16.2177 3.27225L17.8758 4.27103L18.1556 7.76453C18.1614 7.83657 18.165 7.8809 18.1674 7.91479L16.9787 8.311C16.2702 8.54717 15.4903 8.40807 14.9071 7.94154C13.7219 6.99333 12.0935 6.82081 10.7359 7.49963L10.6686 7.53323C11.1099 6.35764 11.9558 5.39171 13.0455 4.83218C13.0811 4.81388 13.1199 4.79481 13.2157 4.74767L16.2177 3.27225Z" fill="#1C274C"/>
</svg>
